<?xml version="1.0" encoding="UTF-8" standalone="no"?>
<!-- Generator: Adobe Illustrator 24.0.1, SVG Export Plug-In . SVG Version: 6.00 Build 0)  -->

<svg
   version="1.1"
   id="Layer_1"
   x="0px"
   y="0px"
   viewBox="0 0 1419.8 847.40002"
   xml:space="preserve"
   sodipodi:docname="nn.svg"
   width="1419.8"
   height="847.40002"
   inkscape:version="1.1.2 (0a00cf5339, 2022-02-04)"
   xmlns:inkscape="http://www.inkscape.org/namespaces/inkscape"
   xmlns:sodipodi="http://sodipodi.sourceforge.net/DTD/sodipodi-0.dtd"
   xmlns="http://www.w3.org/2000/svg"
   xmlns:svg="http://www.w3.org/2000/svg"><defs
   id="defs1573" /><sodipodi:namedview
   id="namedview1571"
   pagecolor="#ffffff"
   bordercolor="#666666"
   borderopacity="1.0"
   inkscape:pageshadow="2"
   inkscape:pageopacity="0.0"
   inkscape:pagecheckerboard="0"
   showgrid="false"
   inkscape:zoom="0.69508368"
   inkscape:cx="572.59293"
   inkscape:cy="451.74417"
   inkscape:window-width="1920"
   inkscape:window-height="1008"
   inkscape:window-x="0"
   inkscape:window-y="0"
   inkscape:window-maximized="1"
   inkscape:current-layer="Layer_1" />
<style
   type="text/css"
   id="style2">
	.st0{fill:none;stroke:#505050;stroke-width:0.5;}
	.st1{fill:#FFFFFF;stroke:#333333;}
	.st2{enable-background:new    ;}
	.st3{fill:none;stroke:#000000;stroke-width:10;stroke-miterlimit:10;}
	.st4{fill:none;stroke:#273474;stroke-width:10;stroke-miterlimit:10;}
	.st5{fill:#2B4999;}
	.st6{fill:none;stroke:#F9B220;stroke-width:9;stroke-miterlimit:10;}
	.st7{fill:#DE9702;}
</style>
<g
   id="g1506"
   transform="translate(-382.7,-25.5)">
	<path
   class="st0"
   d="m 673.7,287 141,-120"
   id="path4" />
	<path
   class="st0"
   d="m 673.7,287 141,-80"
   id="path6" />
	<path
   class="st0"
   d="m 673.7,287 141,-40"
   id="path8" />
	<path
   class="st0"
   d="m 673.7,287 h 141"
   id="path10" />
	<path
   class="st0"
   d="m 673.7,287 141,40"
   id="path12" />
	<path
   class="st0"
   d="m 673.7,287 141,80"
   id="path14" />
	<path
   class="st0"
   d="m 673.7,287 141,120"
   id="path16" />
	<path
   class="st0"
   d="m 673.7,287 141,160"
   id="path18" />
	<path
   class="st0"
   d="m 673.7,287 141,200"
   id="path20" />
	<path
   class="st0"
   d="m 673.7,287 141,240"
   id="path22" />
	<path
   class="st0"
   d="m 673.7,287 141,280"
   id="path24" />
	<path
   class="st0"
   d="m 673.7,287 141,320"
   id="path26" />
	<path
   class="st0"
   d="m 673.7,327 141,-160"
   id="path28" />
	<path
   class="st0"
   d="m 673.7,327 141,-120"
   id="path30" />
	<path
   class="st0"
   d="m 673.7,327 141,-80"
   id="path32" />
	<path
   class="st0"
   d="m 673.7,327 141,-40"
   id="path34" />
	<path
   class="st0"
   d="m 673.7,327 h 141"
   id="path36" />
	<path
   class="st0"
   d="m 673.7,327 141,40"
   id="path38" />
	<path
   class="st0"
   d="m 673.7,327 141,80"
   id="path40" />
	<path
   class="st0"
   d="m 673.7,327 141,120"
   id="path42" />
	<path
   class="st0"
   d="m 673.7,327 141,160"
   id="path44" />
	<path
   class="st0"
   d="m 673.7,327 141,200"
   id="path46" />
	<path
   class="st0"
   d="m 673.7,327 141,240"
   id="path48" />
	<path
   class="st0"
   d="m 673.7,327 141,280"
   id="path50" />
	<path
   class="st0"
   d="m 673.7,367 141,-200"
   id="path52" />
	<path
   class="st0"
   d="m 673.7,367 141,-160"
   id="path54" />
	<path
   class="st0"
   d="m 673.7,367 141,-120"
   id="path56" />
	<path
   class="st0"
   d="m 673.7,367 141,-80"
   id="path58" />
	<path
   class="st0"
   d="m 673.7,367 141,-40"
   id="path60" />
	<path
   class="st0"
   d="m 673.7,367 h 141"
   id="path62" />
	<path
   class="st0"
   d="m 673.7,367 141,40"
   id="path64" />
	<path
   class="st0"
   d="m 673.7,367 141,80"
   id="path66" />
	<path
   class="st0"
   d="m 673.7,367 141,120"
   id="path68" />
	<path
   class="st0"
   d="m 673.7,367 141,160"
   id="path70" />
	<path
   class="st0"
   d="m 673.7,367 141,200"
   id="path72" />
	<path
   class="st0"
   d="m 673.7,367 141,240"
   id="path74" />
	<path
   class="st0"
   d="m 673.7,407 141,-240"
   id="path76" />
	<path
   class="st0"
   d="m 673.7,407 141,-200"
   id="path78" />
	<path
   class="st0"
   d="m 673.7,407 141,-160"
   id="path80" />
	<path
   class="st0"
   d="m 673.7,407 141,-120"
   id="path82" />
	<path
   class="st0"
   d="m 673.7,407 141,-80"
   id="path84" />
	<path
   class="st0"
   d="m 673.7,407 141,-40"
   id="path86" />
	<path
   class="st0"
   d="m 673.7,407 h 141"
   id="path88" />
	<path
   class="st0"
   d="m 673.7,407 141,40"
   id="path90" />
	<path
   class="st0"
   d="m 673.7,407 141,80"
   id="path92" />
	<path
   class="st0"
   d="m 673.7,407 141,120"
   id="path94" />
	<path
   class="st0"
   d="m 673.7,407 141,160"
   id="path96" />
	<path
   class="st0"
   d="m 673.7,407 141,200"
   id="path98" />
	<path
   class="st0"
   d="m 673.7,447 141,-280"
   id="path100" />
	<path
   class="st0"
   d="m 673.7,447 141,-240"
   id="path102" />
	<path
   class="st0"
   d="m 673.7,447 141,-200"
   id="path104" />
	<path
   class="st0"
   d="m 673.7,447 141,-160"
   id="path106" />
	<path
   class="st0"
   d="m 673.7,447 141,-120"
   id="path108" />
	<path
   class="st0"
   d="m 673.7,447 141,-80"
   id="path110" />
	<path
   class="st0"
   d="m 673.7,447 141,-40"
   id="path112" />
	<path
   class="st0"
   d="m 673.7,447 h 141"
   id="path114" />
	<path
   class="st0"
   d="m 673.7,447 141,40"
   id="path116" />
	<path
   class="st0"
   d="m 673.7,447 141,80"
   id="path118" />
	<path
   class="st0"
   d="m 673.7,447 141,120"
   id="path120" />
	<path
   class="st0"
   d="m 673.7,447 141,160"
   id="path122" />
	<path
   class="st0"
   d="m 673.7,487 141,-320"
   id="path124" />
	<path
   class="st0"
   d="m 673.7,487 141,-280"
   id="path126" />
	<path
   class="st0"
   d="m 673.7,487 141,-240"
   id="path128" />
	<path
   class="st0"
   d="m 673.7,487 141,-200"
   id="path130" />
	<path
   class="st0"
   d="m 673.7,487 141,-160"
   id="path132" />
	<path
   class="st0"
   d="m 673.7,487 141,-120"
   id="path134" />
	<path
   class="st0"
   d="m 673.7,487 141,-80"
   id="path136" />
	<path
   class="st0"
   d="m 673.7,487 141,-40"
   id="path138" />
	<path
   class="st0"
   d="m 673.7,487 h 141"
   id="path140" />
	<path
   class="st0"
   d="m 673.7,487 141,40"
   id="path142" />
	<path
   class="st0"
   d="m 673.7,487 141,80"
   id="path144" />
	<path
   class="st0"
   d="m 673.7,487 141,120"
   id="path146" />
	<path
   class="st0"
   d="m 673.7,527 141,-360"
   id="path148" />
	<path
   class="st0"
   d="m 673.7,527 141,-320"
   id="path150" />
	<path
   class="st0"
   d="m 673.7,527 141,-280"
   id="path152" />
	<path
   class="st0"
   d="m 673.7,527 141,-240"
   id="path154" />
	<path
   class="st0"
   d="m 673.7,527 141,-200"
   id="path156" />
	<path
   class="st0"
   d="m 673.7,527 141,-160"
   id="path158" />
	<path
   class="st0"
   d="m 673.7,527 141,-120"
   id="path160" />
	<path
   class="st0"
   d="m 673.7,527 141,-80"
   id="path162" />
	<path
   class="st0"
   d="m 673.7,527 141,-40"
   id="path164" />
	<path
   class="st0"
   d="m 673.7,527 h 141"
   id="path166" />
	<path
   class="st0"
   d="m 673.7,527 141,40"
   id="path168" />
	<path
   class="st0"
   d="m 673.7,527 141,80"
   id="path170" />
	<path
   class="st0"
   d="m 673.7,567 141,-400"
   id="path172" />
	<path
   class="st0"
   d="m 673.7,567 141,-360"
   id="path174" />
	<path
   class="st0"
   d="m 673.7,567 141,-320"
   id="path176" />
	<path
   class="st0"
   d="m 673.7,567 141,-280"
   id="path178" />
	<path
   class="st0"
   d="m 673.7,567 141,-240"
   id="path180" />
	<path
   class="st0"
   d="m 673.7,567 141,-200"
   id="path182" />
	<path
   class="st0"
   d="m 673.7,567 141,-160"
   id="path184" />
	<path
   class="st0"
   d="m 673.7,567 141,-120"
   id="path186" />
	<path
   class="st0"
   d="m 673.7,567 141,-80"
   id="path188" />
	<path
   class="st0"
   d="m 673.7,567 141,-40"
   id="path190" />
	<path
   class="st0"
   d="m 673.7,567 h 141"
   id="path192" />
	<path
   class="st0"
   d="m 673.7,567 141,40"
   id="path194" />
	<path
   class="st0"
   d="m 673.7,607 141,-440"
   id="path196" />
	<path
   class="st0"
   d="m 673.7,607 141,-400"
   id="path198" />
	<path
   class="st0"
   d="m 673.7,607 141,-360"
   id="path200" />
	<path
   class="st0"
   d="m 673.7,607 141,-320"
   id="path202" />
	<path
   class="st0"
   d="m 673.7,607 141,-280"
   id="path204" />
	<path
   class="st0"
   d="m 673.7,607 141,-240"
   id="path206" />
	<path
   class="st0"
   d="m 673.7,607 141,-200"
   id="path208" />
	<path
   class="st0"
   d="m 673.7,607 141,-160"
   id="path210" />
	<path
   class="st0"
   d="m 673.7,607 141,-120"
   id="path212" />
	<path
   class="st0"
   d="m 673.7,607 141,-80"
   id="path214" />
	<path
   class="st0"
   d="m 673.7,607 141,-40"
   id="path216" />
	<path
   class="st0"
   d="m 673.7,607 h 141"
   id="path218" />
	<path
   class="st0"
   d="m 673.7,647 141,-480"
   id="path220" />
	<path
   class="st0"
   d="m 673.7,647 141,-440"
   id="path222" />
	<path
   class="st0"
   d="m 673.7,647 141,-400"
   id="path224" />
	<path
   class="st0"
   d="m 673.7,647 141,-360"
   id="path226" />
	<path
   class="st0"
   d="m 673.7,647 141,-320"
   id="path228" />
	<path
   class="st0"
   d="m 673.7,647 141,-280"
   id="path230" />
	<path
   class="st0"
   d="m 673.7,647 141,-240"
   id="path232" />
	<path
   class="st0"
   d="m 673.7,647 141,-200"
   id="path234" />
	<path
   class="st0"
   d="m 673.7,647 141,-160"
   id="path236" />
	<path
   class="st0"
   d="m 673.7,647 141,-120"
   id="path238" />
	<path
   class="st0"
   d="m 673.7,647 141,-80"
   id="path240" />
	<path
   class="st0"
   d="m 673.7,647 141,-40"
   id="path242" />
	<path
   class="st0"
   d="m 814.7,167 141,160"
   id="path244" />
	<path
   class="st0"
   d="m 814.7,167 141,200"
   id="path246" />
	<path
   class="st0"
   d="m 814.7,167 141,240"
   id="path248" />
	<path
   class="st0"
   d="m 814.7,167 141,280"
   id="path250" />
	<path
   class="st0"
   d="m 814.7,167 141,320"
   id="path252" />
	<path
   class="st0"
   d="m 814.7,167 141,360"
   id="path254" />
	<path
   class="st0"
   d="m 814.7,167 141,400"
   id="path256" />
	<path
   class="st0"
   d="m 814.7,167 141,440"
   id="path258" />
	<path
   class="st0"
   d="m 814.7,207 141,120"
   id="path260" />
	<path
   class="st0"
   d="m 814.7,207 141,160"
   id="path262" />
	<path
   class="st0"
   d="m 814.7,207 141,200"
   id="path264" />
	<path
   class="st0"
   d="m 814.7,207 141,240"
   id="path266" />
	<path
   class="st0"
   d="m 814.7,207 141,280"
   id="path268" />
	<path
   class="st0"
   d="m 814.7,207 141,320"
   id="path270" />
	<path
   class="st0"
   d="m 814.7,207 141,360"
   id="path272" />
	<path
   class="st0"
   d="m 814.7,207 141,400"
   id="path274" />
	<path
   class="st0"
   d="m 814.7,247 141,80"
   id="path276" />
	<path
   class="st0"
   d="m 814.7,247 141,120"
   id="path278" />
	<path
   class="st0"
   d="m 814.7,247 141,160"
   id="path280" />
	<path
   class="st0"
   d="m 814.7,247 141,200"
   id="path282" />
	<path
   class="st0"
   d="m 814.7,247 141,240"
   id="path284" />
	<path
   class="st0"
   d="m 814.7,247 141,280"
   id="path286" />
	<path
   class="st0"
   d="m 814.7,247 141,320"
   id="path288" />
	<path
   class="st0"
   d="m 814.7,247 141,360"
   id="path290" />
	<path
   class="st0"
   d="m 814.7,287 141,40"
   id="path292" />
	<path
   class="st0"
   d="m 814.7,287 141,80"
   id="path294" />
	<path
   class="st0"
   d="m 814.7,287 141,120"
   id="path296" />
	<path
   class="st0"
   d="m 814.7,287 141,160"
   id="path298" />
	<path
   class="st0"
   d="m 814.7,287 141,200"
   id="path300" />
	<path
   class="st0"
   d="m 814.7,287 141,240"
   id="path302" />
	<path
   class="st0"
   d="m 814.7,287 141,280"
   id="path304" />
	<path
   class="st0"
   d="m 814.7,287 141,320"
   id="path306" />
	<path
   class="st0"
   d="m 814.7,327 h 141"
   id="path308" />
	<path
   class="st0"
   d="m 814.7,327 141,40"
   id="path310" />
	<path
   class="st0"
   d="m 814.7,327 141,80"
   id="path312" />
	<path
   class="st0"
   d="m 814.7,327 141,120"
   id="path314" />
	<path
   class="st0"
   d="m 814.7,327 141,160"
   id="path316" />
	<path
   class="st0"
   d="m 814.7,327 141,200"
   id="path318" />
	<path
   class="st0"
   d="m 814.7,327 141,240"
   id="path320" />
	<path
   class="st0"
   d="m 814.7,327 141,280"
   id="path322" />
	<path
   class="st0"
   d="m 814.7,367 141,-40"
   id="path324" />
	<path
   class="st0"
   d="m 814.7,367 h 141"
   id="path326" />
	<path
   class="st0"
   d="m 814.7,367 141,40"
   id="path328" />
	<path
   class="st0"
   d="m 814.7,367 141,80"
   id="path330" />
	<path
   class="st0"
   d="m 814.7,367 141,120"
   id="path332" />
	<path
   class="st0"
   d="m 814.7,367 141,160"
   id="path334" />
	<path
   class="st0"
   d="m 814.7,367 141,200"
   id="path336" />
	<path
   class="st0"
   d="m 814.7,367 141,240"
   id="path338" />
	<path
   class="st0"
   d="m 814.7,407 141,-80"
   id="path340" />
	<path
   class="st0"
   d="m 814.7,407 141,-40"
   id="path342" />
	<path
   class="st0"
   d="m 814.7,407 h 141"
   id="path344" />
	<path
   class="st0"
   d="m 814.7,407 141,40"
   id="path346" />
	<path
   class="st0"
   d="m 814.7,407 141,80"
   id="path348" />
	<path
   class="st0"
   d="m 814.7,407 141,120"
   id="path350" />
	<path
   class="st0"
   d="m 814.7,407 141,160"
   id="path352" />
	<path
   class="st0"
   d="m 814.7,407 141,200"
   id="path354" />
	<path
   class="st0"
   d="m 814.7,447 141,-120"
   id="path356" />
	<path
   class="st0"
   d="m 814.7,447 141,-80"
   id="path358" />
	<path
   class="st0"
   d="m 814.7,447 141,-40"
   id="path360" />
	<path
   class="st0"
   d="m 814.7,447 h 141"
   id="path362" />
	<path
   class="st0"
   d="m 814.7,447 141,40"
   id="path364" />
	<path
   class="st0"
   d="m 814.7,447 141,80"
   id="path366" />
	<path
   class="st0"
   d="m 814.7,447 141,120"
   id="path368" />
	<path
   class="st0"
   d="m 814.7,447 141,160"
   id="path370" />
	<path
   class="st0"
   d="m 814.7,487 141,-160"
   id="path372" />
	<path
   class="st0"
   d="m 814.7,487 141,-120"
   id="path374" />
	<path
   class="st0"
   d="m 814.7,487 141,-80"
   id="path376" />
	<path
   class="st0"
   d="m 814.7,487 141,-40"
   id="path378" />
	<path
   class="st0"
   d="m 814.7,487 h 141"
   id="path380" />
	<path
   class="st0"
   d="m 814.7,487 141,40"
   id="path382" />
	<path
   class="st0"
   d="m 814.7,487 141,80"
   id="path384" />
	<path
   class="st0"
   d="m 814.7,487 141,120"
   id="path386" />
	<path
   class="st0"
   d="m 814.7,527 141,-200"
   id="path388" />
	<path
   class="st0"
   d="m 814.7,527 141,-160"
   id="path390" />
	<path
   class="st0"
   d="m 814.7,527 141,-120"
   id="path392" />
	<path
   class="st0"
   d="m 814.7,527 141,-80"
   id="path394" />
	<path
   class="st0"
   d="m 814.7,527 141,-40"
   id="path396" />
	<path
   class="st0"
   d="m 814.7,527 h 141"
   id="path398" />
	<path
   class="st0"
   d="m 814.7,527 141,40"
   id="path400" />
	<path
   class="st0"
   d="m 814.7,527 141,80"
   id="path402" />
	<path
   class="st0"
   d="m 814.7,567 141,-240"
   id="path404" />
	<path
   class="st0"
   d="m 814.7,567 141,-200"
   id="path406" />
	<path
   class="st0"
   d="m 814.7,567 141,-160"
   id="path408" />
	<path
   class="st0"
   d="m 814.7,567 141,-120"
   id="path410" />
	<path
   class="st0"
   d="m 814.7,567 141,-80"
   id="path412" />
	<path
   class="st0"
   d="m 814.7,567 141,-40"
   id="path414" />
	<path
   class="st0"
   d="m 814.7,567 h 141"
   id="path416" />
	<path
   class="st0"
   d="m 814.7,567 141,40"
   id="path418" />
	<path
   class="st0"
   d="m 814.7,607 141,-280"
   id="path420" />
	<path
   class="st0"
   d="m 814.7,607 141,-240"
   id="path422" />
	<path
   class="st0"
   d="m 814.7,607 141,-200"
   id="path424" />
	<path
   class="st0"
   d="m 814.7,607 141,-160"
   id="path426" />
	<path
   class="st0"
   d="m 814.7,607 141,-120"
   id="path428" />
	<path
   class="st0"
   d="m 814.7,607 141,-80"
   id="path430" />
	<path
   class="st0"
   d="m 814.7,607 141,-40"
   id="path432" />
	<path
   class="st0"
   d="m 814.7,607 h 141"
   id="path434" />
	<path
   class="st0"
   d="m 955.7,327 141,120"
   id="path436" />
	<path
   class="st0"
   d="m 955.7,367 141,80"
   id="path438" />
	<path
   class="st0"
   d="m 955.7,407 141,40"
   id="path440" />
	<path
   class="st0"
   d="m 955.7,447 h 141"
   id="path442" />
	<path
   class="st0"
   d="m 955.7,487 141,-40"
   id="path444" />
	<path
   class="st0"
   d="m 955.7,527 141,-80"
   id="path446" />
	<path
   class="st0"
   d="m 955.7,567 141,-120"
   id="path448" />
	<path
   class="st0"
   d="m 955.7,607 141,-160"
   id="path450" />
	<path
   class="st0"
   d="m 673.7,287 141,360"
   id="path452" />
	<path
   class="st0"
   d="m 673.7,287 141,400"
   id="path454" />
	<path
   class="st0"
   d="m 673.7,287 141,440"
   id="path456" />
	<path
   class="st0"
   d="m 673.7,287 141,480"
   id="path458" />
	<path
   class="st0"
   d="m 673.7,327 141,320"
   id="path460" />
	<path
   class="st0"
   d="m 673.7,327 141,360"
   id="path462" />
	<path
   class="st0"
   d="m 673.7,327 141,400"
   id="path464" />
	<path
   class="st0"
   d="m 673.7,327 141,440"
   id="path466" />
	<path
   class="st0"
   d="m 673.7,367 141,280"
   id="path468" />
	<path
   class="st0"
   d="m 673.7,367 141,320"
   id="path470" />
	<path
   class="st0"
   d="m 673.7,367 141,360"
   id="path472" />
	<path
   class="st0"
   d="m 673.7,367 141,400"
   id="path474" />
	<path
   class="st0"
   d="m 673.7,407 141,240"
   id="path476" />
	<path
   class="st0"
   d="m 673.7,407 141,280"
   id="path478" />
	<path
   class="st0"
   d="m 673.7,407 141,320"
   id="path480" />
	<path
   class="st0"
   d="m 673.7,407 141,360"
   id="path482" />
	<path
   class="st0"
   d="m 673.7,447 141,200"
   id="path484" />
	<path
   class="st0"
   d="m 673.7,447 141,240"
   id="path486" />
	<path
   class="st0"
   d="m 673.7,447 141,280"
   id="path488" />
	<path
   class="st0"
   d="m 673.7,447 141,320"
   id="path490" />
	<path
   class="st0"
   d="m 673.7,487 141,160"
   id="path492" />
	<path
   class="st0"
   d="m 673.7,487 141,200"
   id="path494" />
	<path
   class="st0"
   d="m 673.7,487 141,240"
   id="path496" />
	<path
   class="st0"
   d="m 673.7,487 141,280"
   id="path498" />
	<path
   class="st0"
   d="m 673.7,527 141,120"
   id="path500" />
	<path
   class="st0"
   d="m 673.7,527 141,160"
   id="path502" />
	<path
   class="st0"
   d="m 673.7,527 141,200"
   id="path504" />
	<path
   class="st0"
   d="m 673.7,527 141,240"
   id="path506" />
	<path
   class="st0"
   d="m 673.7,567 141,80"
   id="path508" />
	<path
   class="st0"
   d="m 673.7,567 141,120"
   id="path510" />
	<path
   class="st0"
   d="m 673.7,567 141,160"
   id="path512" />
	<path
   class="st0"
   d="m 673.7,567 141,200"
   id="path514" />
	<path
   class="st0"
   d="m 673.7,607 141,40"
   id="path516" />
	<path
   class="st0"
   d="m 673.7,607 141,80"
   id="path518" />
	<path
   class="st0"
   d="m 673.7,607 141,120"
   id="path520" />
	<path
   class="st0"
   d="m 673.7,607 141,160"
   id="path522" />
	<path
   class="st0"
   d="m 673.7,647 h 141"
   id="path524" />
	<path
   class="st0"
   d="m 673.7,647 141,40"
   id="path526" />
	<path
   class="st0"
   d="m 673.7,647 141,80"
   id="path528" />
	<path
   class="st0"
   d="m 673.7,647 141,120"
   id="path530" />
	<path
   class="st0"
   d="m 814.7,647 141,-320"
   id="path532" />
	<path
   class="st0"
   d="m 814.7,647 141,-280"
   id="path534" />
	<path
   class="st0"
   d="m 814.7,647 141,-240"
   id="path536" />
	<path
   class="st0"
   d="m 814.7,647 141,-200"
   id="path538" />
	<path
   class="st0"
   d="m 814.7,647 141,-160"
   id="path540" />
	<path
   class="st0"
   d="m 814.7,647 141,-120"
   id="path542" />
	<path
   class="st0"
   d="m 814.7,647 141,-80"
   id="path544" />
	<path
   class="st0"
   d="m 814.7,647 141,-40"
   id="path546" />
	<path
   class="st0"
   d="m 814.7,687 141,-360"
   id="path548" />
	<path
   class="st0"
   d="m 814.7,687 141,-320"
   id="path550" />
	<path
   class="st0"
   d="m 814.7,687 141,-280"
   id="path552" />
	<path
   class="st0"
   d="m 814.7,687 141,-240"
   id="path554" />
	<path
   class="st0"
   d="m 814.7,687 141,-200"
   id="path556" />
	<path
   class="st0"
   d="m 814.7,687 141,-160"
   id="path558" />
	<path
   class="st0"
   d="m 814.7,687 141,-120"
   id="path560" />
	<path
   class="st0"
   d="m 814.7,687 141,-80"
   id="path562" />
	<path
   class="st0"
   d="m 814.7,727 141,-400"
   id="path564" />
	<path
   class="st0"
   d="m 814.7,727 141,-360"
   id="path566" />
	<path
   class="st0"
   d="m 814.7,727 141,-320"
   id="path568" />
	<path
   class="st0"
   d="m 814.7,727 141,-280"
   id="path570" />
	<path
   class="st0"
   d="m 814.7,727 141,-240"
   id="path572" />
	<path
   class="st0"
   d="m 814.7,727 141,-200"
   id="path574" />
	<path
   class="st0"
   d="m 814.7,727 141,-160"
   id="path576" />
	<path
   class="st0"
   d="m 814.7,727 141,-120"
   id="path578" />
	<path
   class="st0"
   d="m 814.7,767 141,-440"
   id="path580" />
	<path
   class="st0"
   d="m 814.7,767 141,-400"
   id="path582" />
	<path
   class="st0"
   d="m 814.7,767 141,-360"
   id="path584" />
	<path
   class="st0"
   d="m 814.7,767 141,-320"
   id="path586" />
	<path
   class="st0"
   d="m 814.7,767 141,-280"
   id="path588" />
	<path
   class="st0"
   d="m 814.7,767 141,-240"
   id="path590" />
	<path
   class="st0"
   d="m 814.7,767 141,-200"
   id="path592" />
	<path
   class="st0"
   d="m 814.7,767 141,-160"
   id="path594" />
	<path
   class="st0"
   d="m 955.7,327 141,160"
   id="path596" />
	<path
   class="st0"
   d="m 955.7,367 141,120"
   id="path598" />
	<path
   class="st0"
   d="m 955.7,407 141,80"
   id="path600" />
	<path
   class="st0"
   d="m 955.7,447 141,40"
   id="path602" />
	<path
   class="st0"
   d="m 955.7,487 h 141"
   id="path604" />
	<path
   class="st0"
   d="m 955.7,527 141,-40"
   id="path606" />
	<path
   class="st0"
   d="m 955.7,567 141,-80"
   id="path608" />
	<path
   class="st0"
   d="m 955.7,607 141,-120"
   id="path610" />
	<path
   class="st0"
   d="m 1096.7,447 141,-120"
   id="path612" />
	<path
   class="st0"
   d="m 1096.7,447 141,-80"
   id="path614" />
	<path
   class="st0"
   d="m 1096.7,447 141,-40"
   id="path616" />
	<path
   class="st0"
   d="m 1096.7,447 h 141"
   id="path618" />
	<path
   class="st0"
   d="m 1096.7,447 141,40"
   id="path620" />
	<path
   class="st0"
   d="m 1096.7,447 141,80"
   id="path622" />
	<path
   class="st0"
   d="m 1096.7,447 141,120"
   id="path624" />
	<path
   class="st0"
   d="m 1096.7,447 141,160"
   id="path626" />
	<path
   class="st0"
   d="m 1096.7,487 141,-160"
   id="path628" />
	<path
   class="st0"
   d="m 1096.7,487 141,-120"
   id="path630" />
	<path
   class="st0"
   d="m 1096.7,487 141,-80"
   id="path632" />
	<path
   class="st0"
   d="m 1096.7,487 141,-40"
   id="path634" />
	<path
   class="st0"
   d="m 1096.7,487 h 141"
   id="path636" />
	<path
   class="st0"
   d="m 1096.7,487 141,40"
   id="path638" />
	<path
   class="st0"
   d="m 1096.7,487 141,80"
   id="path640" />
	<path
   class="st0"
   d="m 1096.7,487 141,120"
   id="path642" />
	<path
   class="st0"
   d="m 1237.7,327 141,-160"
   id="path644" />
	<path
   class="st0"
   d="m 1237.7,327 141,-120"
   id="path646" />
	<path
   class="st0"
   d="m 1237.7,327 141,-80"
   id="path648" />
	<path
   class="st0"
   d="m 1237.7,327 141,-40"
   id="path650" />
	<path
   class="st0"
   d="m 1237.7,327 h 141"
   id="path652" />
	<path
   class="st0"
   d="m 1237.7,327 141,40"
   id="path654" />
	<path
   class="st0"
   d="m 1237.7,327 141,80"
   id="path656" />
	<path
   class="st0"
   d="m 1237.7,327 141,120"
   id="path658" />
	<path
   class="st0"
   d="m 1237.7,327 141,160"
   id="path660" />
	<path
   class="st0"
   d="m 1237.7,327 141,200"
   id="path662" />
	<path
   class="st0"
   d="m 1237.7,327 141,240"
   id="path664" />
	<path
   class="st0"
   d="m 1237.7,327 141,280"
   id="path666" />
	<path
   class="st0"
   d="m 1237.7,327 141,320"
   id="path668" />
	<path
   class="st0"
   d="m 1237.7,327 141,360"
   id="path670" />
	<path
   class="st0"
   d="m 1237.7,327 141,400"
   id="path672" />
	<path
   class="st0"
   d="m 1237.7,327 141,440"
   id="path674" />
	<path
   class="st0"
   d="m 1237.7,367 141,-200"
   id="path676" />
	<path
   class="st0"
   d="m 1237.7,367 141,-160"
   id="path678" />
	<path
   class="st0"
   d="m 1237.7,367 141,-120"
   id="path680" />
	<path
   class="st0"
   d="m 1237.7,367 141,-80"
   id="path682" />
	<path
   class="st0"
   d="m 1237.7,367 141,-40"
   id="path684" />
	<path
   class="st0"
   d="m 1237.7,367 h 141"
   id="path686" />
	<path
   class="st0"
   d="m 1237.7,367 141,40"
   id="path688" />
	<path
   class="st0"
   d="m 1237.7,367 141,80"
   id="path690" />
	<path
   class="st0"
   d="m 1237.7,367 141,120"
   id="path692" />
	<path
   class="st0"
   d="m 1237.7,367 141,160"
   id="path694" />
	<path
   class="st0"
   d="m 1237.7,367 141,200"
   id="path696" />
	<path
   class="st0"
   d="m 1237.7,367 141,240"
   id="path698" />
	<path
   class="st0"
   d="m 1237.7,367 141,280"
   id="path700" />
	<path
   class="st0"
   d="m 1237.7,367 141,320"
   id="path702" />
	<path
   class="st0"
   d="m 1237.7,367 141,360"
   id="path704" />
	<path
   class="st0"
   d="m 1237.7,367 141,400"
   id="path706" />
	<path
   class="st0"
   d="m 1237.7,407 141,-240"
   id="path708" />
	<path
   class="st0"
   d="m 1237.7,407 141,-200"
   id="path710" />
	<path
   class="st0"
   d="m 1237.7,407 141,-160"
   id="path712" />
	<path
   class="st0"
   d="m 1237.7,407 141,-120"
   id="path714" />
	<path
   class="st0"
   d="m 1237.7,407 141,-80"
   id="path716" />
	<path
   class="st0"
   d="m 1237.7,407 141,-40"
   id="path718" />
	<path
   class="st0"
   d="m 1237.7,407 h 141"
   id="path720" />
	<path
   class="st0"
   d="m 1237.7,407 141,40"
   id="path722" />
	<path
   class="st0"
   d="m 1237.7,407 141,80"
   id="path724" />
	<path
   class="st0"
   d="m 1237.7,407 141,120"
   id="path726" />
	<path
   class="st0"
   d="m 1237.7,407 141,160"
   id="path728" />
	<path
   class="st0"
   d="m 1237.7,407 141,200"
   id="path730" />
	<path
   class="st0"
   d="m 1237.7,407 141,240"
   id="path732" />
	<path
   class="st0"
   d="m 1237.7,407 141,280"
   id="path734" />
	<path
   class="st0"
   d="m 1237.7,407 141,320"
   id="path736" />
	<path
   class="st0"
   d="m 1237.7,407 141,360"
   id="path738" />
	<path
   class="st0"
   d="m 1237.7,447 141,-280"
   id="path740" />
	<path
   class="st0"
   d="m 1237.7,447 141,-240"
   id="path742" />
	<path
   class="st0"
   d="m 1237.7,447 141,-200"
   id="path744" />
	<path
   class="st0"
   d="m 1237.7,447 141,-160"
   id="path746" />
	<path
   class="st0"
   d="m 1237.7,447 141,-120"
   id="path748" />
	<path
   class="st0"
   d="m 1237.7,447 141,-80"
   id="path750" />
	<path
   class="st0"
   d="m 1237.7,447 141,-40"
   id="path752" />
	<path
   class="st0"
   d="m 1237.7,447 h 141"
   id="path754" />
	<path
   class="st0"
   d="m 1237.7,447 141,40"
   id="path756" />
	<path
   class="st0"
   d="m 1237.7,447 141,80"
   id="path758" />
	<path
   class="st0"
   d="m 1237.7,447 141,120"
   id="path760" />
	<path
   class="st0"
   d="m 1237.7,447 141,160"
   id="path762" />
	<path
   class="st0"
   d="m 1237.7,447 141,200"
   id="path764" />
	<path
   class="st0"
   d="m 1237.7,447 141,240"
   id="path766" />
	<path
   class="st0"
   d="m 1237.7,447 141,280"
   id="path768" />
	<path
   class="st0"
   d="m 1237.7,447 141,320"
   id="path770" />
	<path
   class="st0"
   d="m 1237.7,487 141,-320"
   id="path772" />
	<path
   class="st0"
   d="m 1237.7,487 141,-280"
   id="path774" />
	<path
   class="st0"
   d="m 1237.7,487 141,-240"
   id="path776" />
	<path
   class="st0"
   d="m 1237.7,487 141,-200"
   id="path778" />
	<path
   class="st0"
   d="m 1237.7,487 141,-160"
   id="path780" />
	<path
   class="st0"
   d="m 1237.7,487 141,-120"
   id="path782" />
	<path
   class="st0"
   d="m 1237.7,487 141,-80"
   id="path784" />
	<path
   class="st0"
   d="m 1237.7,487 141,-40"
   id="path786" />
	<path
   class="st0"
   d="m 1237.7,487 h 141"
   id="path788" />
	<path
   class="st0"
   d="m 1237.7,487 141,40"
   id="path790" />
	<path
   class="st0"
   d="m 1237.7,487 141,80"
   id="path792" />
	<path
   class="st0"
   d="m 1237.7,487 141,120"
   id="path794" />
	<path
   class="st0"
   d="m 1237.7,487 141,160"
   id="path796" />
	<path
   class="st0"
   d="m 1237.7,487 141,200"
   id="path798" />
	<path
   class="st0"
   d="m 1237.7,487 141,240"
   id="path800" />
	<path
   class="st0"
   d="m 1237.7,487 141,280"
   id="path802" />
	<path
   class="st0"
   d="m 1237.7,527 141,-360"
   id="path804" />
	<path
   class="st0"
   d="m 1237.7,527 141,-320"
   id="path806" />
	<path
   class="st0"
   d="m 1237.7,527 141,-280"
   id="path808" />
	<path
   class="st0"
   d="m 1237.7,527 141,-240"
   id="path810" />
	<path
   class="st0"
   d="m 1237.7,527 141,-200"
   id="path812" />
	<path
   class="st0"
   d="m 1237.7,527 141,-160"
   id="path814" />
	<path
   class="st0"
   d="m 1237.7,527 141,-120"
   id="path816" />
	<path
   class="st0"
   d="m 1237.7,527 141,-80"
   id="path818" />
	<path
   class="st0"
   d="m 1237.7,527 141,-40"
   id="path820" />
	<path
   class="st0"
   d="m 1237.7,527 h 141"
   id="path822" />
	<path
   class="st0"
   d="m 1237.7,527 141,40"
   id="path824" />
	<path
   class="st0"
   d="m 1237.7,527 141,80"
   id="path826" />
	<path
   class="st0"
   d="m 1237.7,527 141,120"
   id="path828" />
	<path
   class="st0"
   d="m 1237.7,527 141,160"
   id="path830" />
	<path
   class="st0"
   d="m 1237.7,527 141,200"
   id="path832" />
	<path
   class="st0"
   d="m 1237.7,527 141,240"
   id="path834" />
	<path
   class="st0"
   d="m 1237.7,567 141,-400"
   id="path836" />
	<path
   class="st0"
   d="m 1237.7,567 141,-360"
   id="path838" />
	<path
   class="st0"
   d="m 1237.7,567 141,-320"
   id="path840" />
	<path
   class="st0"
   d="m 1237.7,567 141,-280"
   id="path842" />
	<path
   class="st0"
   d="m 1237.7,567 141,-240"
   id="path844" />
	<path
   class="st0"
   d="m 1237.7,567 141,-200"
   id="path846" />
	<path
   class="st0"
   d="m 1237.7,567 141,-160"
   id="path848" />
	<path
   class="st0"
   d="m 1237.7,567 141,-120"
   id="path850" />
	<path
   class="st0"
   d="m 1237.7,567 141,-80"
   id="path852" />
	<path
   class="st0"
   d="m 1237.7,567 141,-40"
   id="path854" />
	<path
   class="st0"
   d="m 1237.7,567 h 141"
   id="path856" />
	<path
   class="st0"
   d="m 1237.7,567 141,40"
   id="path858" />
	<path
   class="st0"
   d="m 1237.7,567 141,80"
   id="path860" />
	<path
   class="st0"
   d="m 1237.7,567 141,120"
   id="path862" />
	<path
   class="st0"
   d="m 1237.7,567 141,160"
   id="path864" />
	<path
   class="st0"
   d="m 1237.7,567 141,200"
   id="path866" />
	<path
   class="st0"
   d="m 1237.7,607 141,-440"
   id="path868" />
	<path
   class="st0"
   d="m 1237.7,607 141,-400"
   id="path870" />
	<path
   class="st0"
   d="m 1237.7,607 141,-360"
   id="path872" />
	<path
   class="st0"
   d="m 1237.7,607 141,-320"
   id="path874" />
	<path
   class="st0"
   d="m 1237.7,607 141,-280"
   id="path876" />
	<path
   class="st0"
   d="m 1237.7,607 141,-240"
   id="path878" />
	<path
   class="st0"
   d="m 1237.7,607 141,-200"
   id="path880" />
	<path
   class="st0"
   d="m 1237.7,607 141,-160"
   id="path882" />
	<path
   class="st0"
   d="m 1237.7,607 141,-120"
   id="path884" />
	<path
   class="st0"
   d="m 1237.7,607 141,-80"
   id="path886" />
	<path
   class="st0"
   d="m 1237.7,607 141,-40"
   id="path888" />
	<path
   class="st0"
   d="m 1237.7,607 h 141"
   id="path890" />
	<path
   class="st0"
   d="m 1237.7,607 141,40"
   id="path892" />
	<path
   class="st0"
   d="m 1237.7,607 141,80"
   id="path894" />
	<path
   class="st0"
   d="m 1237.7,607 141,120"
   id="path896" />
	<path
   class="st0"
   d="m 1237.7,607 141,160"
   id="path898" />
	<path
   class="st0"
   d="m 1378.7,167 141,120"
   id="path900" />
	<path
   class="st0"
   d="m 1378.7,167 141,160"
   id="path902" />
	<path
   class="st0"
   d="m 1378.7,167 141,200"
   id="path904" />
	<path
   class="st0"
   d="m 1378.7,167 141,240"
   id="path906" />
	<path
   class="st0"
   d="m 1378.7,167 141,280"
   id="path908" />
	<path
   class="st0"
   d="m 1378.7,167 141,320"
   id="path910" />
	<path
   class="st0"
   d="m 1378.7,167 141,360"
   id="path912" />
	<path
   class="st0"
   d="m 1378.7,167 141,400"
   id="path914" />
	<path
   class="st0"
   d="m 1378.7,167 141,440"
   id="path916" />
	<path
   class="st0"
   d="m 1378.7,167 141,480"
   id="path918" />
	<path
   class="st0"
   d="m 1378.7,207 141,80"
   id="path920" />
	<path
   class="st0"
   d="m 1378.7,207 141,120"
   id="path922" />
	<path
   class="st0"
   d="m 1378.7,207 141,160"
   id="path924" />
	<path
   class="st0"
   d="m 1378.7,207 141,200"
   id="path926" />
	<path
   class="st0"
   d="m 1378.7,207 141,240"
   id="path928" />
	<path
   class="st0"
   d="m 1378.7,207 141,280"
   id="path930" />
	<path
   class="st0"
   d="m 1378.7,207 141,320"
   id="path932" />
	<path
   class="st0"
   d="m 1378.7,207 141,360"
   id="path934" />
	<path
   class="st0"
   d="m 1378.7,207 141,400"
   id="path936" />
	<path
   class="st0"
   d="m 1378.7,207 141,440"
   id="path938" />
	<path
   class="st0"
   d="m 1378.7,247 141,40"
   id="path940" />
	<path
   class="st0"
   d="m 1378.7,247 141,80"
   id="path942" />
	<path
   class="st0"
   d="m 1378.7,247 141,120"
   id="path944" />
	<path
   class="st0"
   d="m 1378.7,247 141,160"
   id="path946" />
	<path
   class="st0"
   d="m 1378.7,247 141,200"
   id="path948" />
	<path
   class="st0"
   d="m 1378.7,247 141,240"
   id="path950" />
	<path
   class="st0"
   d="m 1378.7,247 141,280"
   id="path952" />
	<path
   class="st0"
   d="m 1378.7,247 141,320"
   id="path954" />
	<path
   class="st0"
   d="m 1378.7,247 141,360"
   id="path956" />
	<path
   class="st0"
   d="m 1378.7,247 141,400"
   id="path958" />
	<path
   class="st0"
   d="m 1378.7,287 h 141"
   id="path960" />
	<path
   class="st0"
   d="m 1378.7,287 141,40"
   id="path962" />
	<path
   class="st0"
   d="m 1378.7,287 141,80"
   id="path964" />
	<path
   class="st0"
   d="m 1378.7,287 141,120"
   id="path966" />
	<path
   class="st0"
   d="m 1378.7,287 141,160"
   id="path968" />
	<path
   class="st0"
   d="m 1378.7,287 141,200"
   id="path970" />
	<path
   class="st0"
   d="m 1378.7,287 141,240"
   id="path972" />
	<path
   class="st0"
   d="m 1378.7,287 141,280"
   id="path974" />
	<path
   class="st0"
   d="m 1378.7,287 141,320"
   id="path976" />
	<path
   class="st0"
   d="m 1378.7,287 141,360"
   id="path978" />
	<path
   class="st0"
   d="m 1378.7,327 141,-40"
   id="path980" />
	<path
   class="st0"
   d="m 1378.7,327 h 141"
   id="path982" />
	<path
   class="st0"
   d="m 1378.7,327 141,40"
   id="path984" />
	<path
   class="st0"
   d="m 1378.7,327 141,80"
   id="path986" />
	<path
   class="st0"
   d="m 1378.7,327 141,120"
   id="path988" />
	<path
   class="st0"
   d="m 1378.7,327 141,160"
   id="path990" />
	<path
   class="st0"
   d="m 1378.7,327 141,200"
   id="path992" />
	<path
   class="st0"
   d="m 1378.7,327 141,240"
   id="path994" />
	<path
   class="st0"
   d="m 1378.7,327 141,280"
   id="path996" />
	<path
   class="st0"
   d="m 1378.7,327 141,320"
   id="path998" />
	<path
   class="st0"
   d="m 1378.7,367 141,-80"
   id="path1000" />
	<path
   class="st0"
   d="m 1378.7,367 141,-40"
   id="path1002" />
	<path
   class="st0"
   d="m 1378.7,367 h 141"
   id="path1004" />
	<path
   class="st0"
   d="m 1378.7,367 141,40"
   id="path1006" />
	<path
   class="st0"
   d="m 1378.7,367 141,80"
   id="path1008" />
	<path
   class="st0"
   d="m 1378.7,367 141,120"
   id="path1010" />
	<path
   class="st0"
   d="m 1378.7,367 141,160"
   id="path1012" />
	<path
   class="st0"
   d="m 1378.7,367 141,200"
   id="path1014" />
	<path
   class="st0"
   d="m 1378.7,367 141,240"
   id="path1016" />
	<path
   class="st0"
   d="m 1378.7,367 141,280"
   id="path1018" />
	<path
   class="st0"
   d="m 1378.7,407 141,-120"
   id="path1020" />
	<path
   class="st0"
   d="m 1378.7,407 141,-80"
   id="path1022" />
	<path
   class="st0"
   d="m 1378.7,407 141,-40"
   id="path1024" />
	<path
   class="st0"
   d="m 1378.7,407 h 141"
   id="path1026" />
	<path
   class="st0"
   d="m 1378.7,407 141,40"
   id="path1028" />
	<path
   class="st0"
   d="m 1378.7,407 141,80"
   id="path1030" />
	<path
   class="st0"
   d="m 1378.7,407 141,120"
   id="path1032" />
	<path
   class="st0"
   d="m 1378.7,407 141,160"
   id="path1034" />
	<path
   class="st0"
   d="m 1378.7,407 141,200"
   id="path1036" />
	<path
   class="st0"
   d="m 1378.7,407 141,240"
   id="path1038" />
	<path
   class="st0"
   d="m 1378.7,447 141,-160"
   id="path1040" />
	<path
   class="st0"
   d="m 1378.7,447 141,-120"
   id="path1042" />
	<path
   class="st0"
   d="m 1378.7,447 141,-80"
   id="path1044" />
	<path
   class="st0"
   d="m 1378.7,447 141,-40"
   id="path1046" />
	<path
   class="st0"
   d="m 1378.7,447 h 141"
   id="path1048" />
	<path
   class="st0"
   d="m 1378.7,447 141,40"
   id="path1050" />
	<path
   class="st0"
   d="m 1378.7,447 141,80"
   id="path1052" />
	<path
   class="st0"
   d="m 1378.7,447 141,120"
   id="path1054" />
	<path
   class="st0"
   d="m 1378.7,447 141,160"
   id="path1056" />
	<path
   class="st0"
   d="m 1378.7,447 141,200"
   id="path1058" />
	<path
   class="st0"
   d="m 1378.7,487 141,-200"
   id="path1060" />
	<path
   class="st0"
   d="m 1378.7,487 141,-160"
   id="path1062" />
	<path
   class="st0"
   d="m 1378.7,487 141,-120"
   id="path1064" />
	<path
   class="st0"
   d="m 1378.7,487 141,-80"
   id="path1066" />
	<path
   class="st0"
   d="m 1378.7,487 141,-40"
   id="path1068" />
	<path
   class="st0"
   d="m 1378.7,487 h 141"
   id="path1070" />
	<path
   class="st0"
   d="m 1378.7,487 141,40"
   id="path1072" />
	<path
   class="st0"
   d="m 1378.7,487 141,80"
   id="path1074" />
	<path
   class="st0"
   d="m 1378.7,487 141,120"
   id="path1076" />
	<path
   class="st0"
   d="m 1378.7,487 141,160"
   id="path1078" />
	<path
   class="st0"
   d="m 1378.7,527 141,-240"
   id="path1080" />
	<path
   class="st0"
   d="m 1378.7,527 141,-200"
   id="path1082" />
	<path
   class="st0"
   d="m 1378.7,527 141,-160"
   id="path1084" />
	<path
   class="st0"
   d="m 1378.7,527 141,-120"
   id="path1086" />
	<path
   class="st0"
   d="m 1378.7,527 141,-80"
   id="path1088" />
	<path
   class="st0"
   d="m 1378.7,527 141,-40"
   id="path1090" />
	<path
   class="st0"
   d="m 1378.7,527 h 141"
   id="path1092" />
	<path
   class="st0"
   d="m 1378.7,527 141,40"
   id="path1094" />
	<path
   class="st0"
   d="m 1378.7,527 141,80"
   id="path1096" />
	<path
   class="st0"
   d="m 1378.7,527 141,120"
   id="path1098" />
	<path
   class="st0"
   d="m 1378.7,567 141,-280"
   id="path1100" />
	<path
   class="st0"
   d="m 1378.7,567 141,-240"
   id="path1102" />
	<path
   class="st0"
   d="m 1378.7,567 141,-200"
   id="path1104" />
	<path
   class="st0"
   d="m 1378.7,567 141,-160"
   id="path1106" />
	<path
   class="st0"
   d="m 1378.7,567 141,-120"
   id="path1108" />
	<path
   class="st0"
   d="m 1378.7,567 141,-80"
   id="path1110" />
	<path
   class="st0"
   d="m 1378.7,567 141,-40"
   id="path1112" />
	<path
   class="st0"
   d="m 1378.7,567 h 141"
   id="path1114" />
	<path
   class="st0"
   d="m 1378.7,567 141,40"
   id="path1116" />
	<path
   class="st0"
   d="m 1378.7,567 141,80"
   id="path1118" />
	<path
   class="st0"
   d="m 1378.7,607 141,-320"
   id="path1120" />
	<path
   class="st0"
   d="m 1378.7,607 141,-280"
   id="path1122" />
	<path
   class="st0"
   d="m 1378.7,607 141,-240"
   id="path1124" />
	<path
   class="st0"
   d="m 1378.7,607 141,-200"
   id="path1126" />
	<path
   class="st0"
   d="m 1378.7,607 141,-160"
   id="path1128" />
	<path
   class="st0"
   d="m 1378.7,607 141,-120"
   id="path1130" />
	<path
   class="st0"
   d="m 1378.7,607 141,-80"
   id="path1132" />
	<path
   class="st0"
   d="m 1378.7,607 141,-40"
   id="path1134" />
	<path
   class="st0"
   d="m 1378.7,607 h 141"
   id="path1136" />
	<path
   class="st0"
   d="m 1378.7,607 141,40"
   id="path1138" />
	<path
   class="st0"
   d="m 1378.7,647 141,-360"
   id="path1140" />
	<path
   class="st0"
   d="m 1378.7,647 141,-320"
   id="path1142" />
	<path
   class="st0"
   d="m 1378.7,647 141,-280"
   id="path1144" />
	<path
   class="st0"
   d="m 1378.7,647 141,-240"
   id="path1146" />
	<path
   class="st0"
   d="m 1378.7,647 141,-200"
   id="path1148" />
	<path
   class="st0"
   d="m 1378.7,647 141,-160"
   id="path1150" />
	<path
   class="st0"
   d="m 1378.7,647 141,-120"
   id="path1152" />
	<path
   class="st0"
   d="m 1378.7,647 141,-80"
   id="path1154" />
	<path
   class="st0"
   d="m 1378.7,647 141,-40"
   id="path1156" />
	<path
   class="st0"
   d="m 1378.7,647 h 141"
   id="path1158" />
	<path
   class="st0"
   d="m 1378.7,687 141,-400"
   id="path1160" />
	<path
   class="st0"
   d="m 1378.7,687 141,-360"
   id="path1162" />
	<path
   class="st0"
   d="m 1378.7,687 141,-320"
   id="path1164" />
	<path
   class="st0"
   d="m 1378.7,687 141,-280"
   id="path1166" />
	<path
   class="st0"
   d="m 1378.7,687 141,-240"
   id="path1168" />
	<path
   class="st0"
   d="m 1378.7,687 141,-200"
   id="path1170" />
	<path
   class="st0"
   d="m 1378.7,687 141,-160"
   id="path1172" />
	<path
   class="st0"
   d="m 1378.7,687 141,-120"
   id="path1174" />
	<path
   class="st0"
   d="m 1378.7,687 141,-80"
   id="path1176" />
	<path
   class="st0"
   d="m 1378.7,687 141,-40"
   id="path1178" />
	<path
   class="st0"
   d="m 1378.7,727 141,-440"
   id="path1180" />
	<path
   class="st0"
   d="m 1378.7,727 141,-400"
   id="path1182" />
	<path
   class="st0"
   d="m 1378.7,727 141,-360"
   id="path1184" />
	<path
   class="st0"
   d="m 1378.7,727 141,-320"
   id="path1186" />
	<path
   class="st0"
   d="m 1378.7,727 141,-280"
   id="path1188" />
	<path
   class="st0"
   d="m 1378.7,727 141,-240"
   id="path1190" />
	<path
   class="st0"
   d="m 1378.7,727 141,-200"
   id="path1192" />
	<path
   class="st0"
   d="m 1378.7,727 141,-160"
   id="path1194" />
	<path
   class="st0"
   d="m 1378.7,727 141,-120"
   id="path1196" />
	<path
   class="st0"
   d="m 1378.7,727 141,-80"
   id="path1198" />
	<path
   class="st0"
   d="m 1378.7,767 141,-480"
   id="path1200" />
	<path
   class="st0"
   d="m 1378.7,767 141,-440"
   id="path1202" />
	<path
   class="st0"
   d="m 1378.7,767 141,-400"
   id="path1204" />
	<path
   class="st0"
   d="m 1378.7,767 141,-360"
   id="path1206" />
	<path
   class="st0"
   d="m 1378.7,767 141,-320"
   id="path1208" />
	<path
   class="st0"
   d="m 1378.7,767 141,-280"
   id="path1210" />
	<path
   class="st0"
   d="m 1378.7,767 141,-240"
   id="path1212" />
	<path
   class="st0"
   d="m 1378.7,767 141,-200"
   id="path1214" />
	<path
   class="st0"
   d="m 1378.7,767 141,-160"
   id="path1216" />
	<path
   class="st0"
   d="m 1378.7,767 141,-120"
   id="path1218" />
	<circle
   id="_x30__x5F_0"
   class="st1"
   cx="673.70001"
   cy="287"
   r="19" />
	<circle
   id="_x30__x5F_1"
   class="st1"
   cx="673.70001"
   cy="327"
   r="19" />
	<circle
   id="_x30__x5F_2"
   class="st1"
   cx="673.70001"
   cy="367"
   r="19" />
	<circle
   id="_x30__x5F_3"
   class="st1"
   cx="673.70001"
   cy="407"
   r="19" />
	<circle
   id="_x30__x5F_4"
   class="st1"
   cx="673.70001"
   cy="447"
   r="19" />
	<circle
   id="_x30__x5F_5"
   class="st1"
   cx="673.70001"
   cy="487"
   r="19" />
	<circle
   id="_x30__x5F_6"
   class="st1"
   cx="673.70001"
   cy="527"
   r="19" />
	<circle
   id="_x30__x5F_7"
   class="st1"
   cx="673.70001"
   cy="567"
   r="19" />
	<circle
   id="_x30__x5F_8"
   class="st1"
   cx="673.70001"
   cy="607"
   r="19" />
	<circle
   id="_x30__x5F_9"
   class="st1"
   cx="673.70001"
   cy="647"
   r="19" />
	<circle
   id="_x31__x5F_0"
   class="st1"
   cx="814.70001"
   cy="167"
   r="19" />
	<circle
   id="_x31__x5F_1"
   class="st1"
   cx="814.70001"
   cy="207"
   r="19" />
	<circle
   id="_x31__x5F_2"
   class="st1"
   cx="814.70001"
   cy="247"
   r="19" />
	<circle
   id="_x31__x5F_3"
   class="st1"
   cx="814.70001"
   cy="287"
   r="19" />
	<circle
   id="_x31__x5F_4"
   class="st1"
   cx="814.70001"
   cy="327"
   r="19" />
	<circle
   id="_x31__x5F_5"
   class="st1"
   cx="814.70001"
   cy="367"
   r="19" />
	<circle
   id="_x31__x5F_6"
   class="st1"
   cx="814.70001"
   cy="407"
   r="19" />
	<circle
   id="_x31__x5F_7"
   class="st1"
   cx="814.70001"
   cy="447"
   r="19" />
	<circle
   id="_x31__x5F_8"
   class="st1"
   cx="814.70001"
   cy="487"
   r="19" />
	<circle
   id="_x31__x5F_9"
   class="st1"
   cx="814.70001"
   cy="527"
   r="19" />
	<circle
   id="_x31__x5F_10"
   class="st1"
   cx="814.70001"
   cy="567"
   r="19" />
	<circle
   id="_x31__x5F_11"
   class="st1"
   cx="814.70001"
   cy="607"
   r="19" />
	<circle
   id="_x31__x5F_12"
   class="st1"
   cx="814.70001"
   cy="647"
   r="19" />
	<circle
   id="_x31__x5F_13"
   class="st1"
   cx="814.70001"
   cy="687"
   r="19" />
	<circle
   id="_x31__x5F_14"
   class="st1"
   cx="814.70001"
   cy="727"
   r="19" />
	<circle
   id="_x31__x5F_15"
   class="st1"
   cx="814.70001"
   cy="767"
   r="19" />
	<circle
   id="_x32__x5F_0"
   class="st1"
   cx="955.70001"
   cy="327"
   r="19" />
	<circle
   id="_x32__x5F_1"
   class="st1"
   cx="955.70001"
   cy="367"
   r="19" />
	<circle
   id="_x32__x5F_2"
   class="st1"
   cx="955.70001"
   cy="407"
   r="19" />
	<circle
   id="_x32__x5F_3"
   class="st1"
   cx="955.70001"
   cy="447"
   r="19" />
	<circle
   id="_x32__x5F_4"
   class="st1"
   cx="955.70001"
   cy="487"
   r="19" />
	<circle
   id="_x32__x5F_5"
   class="st1"
   cx="955.70001"
   cy="527"
   r="19" />
	<circle
   id="_x32__x5F_6"
   class="st1"
   cx="955.70001"
   cy="567"
   r="19" />
	<circle
   id="_x32__x5F_7"
   class="st1"
   cx="955.70001"
   cy="607"
   r="19" />
	<circle
   id="_x33__x5F_0"
   class="st1"
   cx="1096.7"
   cy="447"
   r="19" />
	<g
   class="st2"
   id="g1283">
		<path
   d="m 639.8,811.2 v -8.6 h 1.1 v 8.6 z"
   id="path1255" />
		<path
   d="M 642.8,811.2 V 805 h 0.9 v 0.9 c 0.5,-0.7 1.1,-1 2,-1 0.4,0 0.7,0.1 1,0.2 0.3,0.1 0.5,0.3 0.7,0.5 0.2,0.2 0.3,0.5 0.3,0.8 0,0.2 0.1,0.5 0.1,1 v 3.8 h -1.1 v -3.8 c 0,-0.4 0,-0.8 -0.1,-1 -0.1,-0.2 -0.2,-0.4 -0.4,-0.5 -0.2,-0.1 -0.5,-0.2 -0.7,-0.2 -0.4,0 -0.8,0.1 -1.2,0.4 -0.4,0.3 -0.5,0.8 -0.5,1.6 v 3.4 h -1 z"
   id="path1257" />
		<path
   d="M 649.5,813.6 V 805 h 1 v 0.8 c 0.2,-0.3 0.5,-0.6 0.8,-0.7 0.3,-0.1 0.6,-0.2 1,-0.2 0.5,0 1,0.1 1.4,0.4 0.4,0.3 0.7,0.7 0.9,1.2 0.2,0.5 0.3,1 0.3,1.6 0,0.6 -0.1,1.2 -0.3,1.7 -0.2,0.5 -0.6,0.9 -1,1.2 -0.4,0.3 -0.9,0.4 -1.4,0.4 -0.4,0 -0.7,-0.1 -0.9,-0.2 -0.2,-0.1 -0.5,-0.3 -0.7,-0.6 v 3 z m 0.9,-5.5 c 0,0.8 0.2,1.4 0.5,1.8 0.3,0.4 0.7,0.6 1.2,0.6 0.5,0 0.9,-0.2 1.2,-0.6 0.3,-0.4 0.5,-1 0.5,-1.8 0,-0.8 -0.2,-1.4 -0.5,-1.8 -0.3,-0.4 -0.7,-0.6 -1.2,-0.6 -0.4,0 -0.8,0.2 -1.2,0.6 -0.4,0.4 -0.5,1 -0.5,1.8 z"
   id="path1259" />
		<path
   d="m 660.2,811.2 v -0.9 c -0.5,0.7 -1.1,1.1 -2,1.1 -0.4,0 -0.7,-0.1 -1,-0.2 -0.3,-0.1 -0.6,-0.3 -0.7,-0.5 -0.1,-0.2 -0.3,-0.5 -0.3,-0.8 0,-0.2 -0.1,-0.5 -0.1,-1 V 805 h 1.1 v 3.5 c 0,0.6 0,0.9 0.1,1.1 0.1,0.3 0.2,0.5 0.4,0.7 0.2,0.2 0.5,0.2 0.8,0.2 0.3,0 0.6,-0.1 0.9,-0.2 0.3,-0.1 0.5,-0.4 0.6,-0.7 0.1,-0.3 0.2,-0.7 0.2,-1.2 V 805 h 1.1 v 6.2 z"
   id="path1261" />
		<path
   d="m 665.1,810.3 0.2,0.9 c -0.3,0.1 -0.6,0.1 -0.8,0.1 -0.4,0 -0.7,-0.1 -0.9,-0.2 -0.2,-0.1 -0.4,-0.3 -0.4,-0.5 0,-0.2 -0.1,-0.6 -0.1,-1.2 v -3.6 h -0.8 V 805 h 0.8 v -1.5 l 1,-0.6 v 2.2 h 1.1 v 0.8 h -1.1 v 3.6 c 0,0.3 0,0.5 0.1,0.6 0.1,0.1 0.1,0.2 0.2,0.2 0.1,0 0.2,0.1 0.4,0.1 0,-0.1 0.1,-0.1 0.3,-0.1 z"
   id="path1263" />
		<path
   d="m 669.6,811.2 v -8.6 h 1.1 v 7.6 h 4.2 v 1 z"
   id="path1265" />
		<path
   d="m 680.2,810.4 c -0.4,0.3 -0.8,0.6 -1.1,0.7 -0.3,0.1 -0.7,0.2 -1.2,0.2 -0.7,0 -1.2,-0.2 -1.6,-0.5 -0.4,-0.3 -0.6,-0.8 -0.6,-1.3 0,-0.3 0.1,-0.6 0.2,-0.8 0.1,-0.2 0.3,-0.5 0.5,-0.6 0.2,-0.1 0.5,-0.3 0.8,-0.3 0.2,-0.1 0.5,-0.1 0.9,-0.2 0.9,-0.1 1.5,-0.2 1.9,-0.4 0,-0.1 0,-0.2 0,-0.3 0,-0.4 -0.1,-0.7 -0.3,-0.9 -0.3,-0.2 -0.7,-0.4 -1.2,-0.4 -0.5,0 -0.9,0.1 -1.1,0.3 -0.2,0.2 -0.4,0.5 -0.5,0.9 l -1,-0.1 c 0.1,-0.4 0.2,-0.8 0.5,-1.1 0.3,-0.3 0.5,-0.5 0.9,-0.6 0.4,-0.1 0.9,-0.2 1.4,-0.2 0.5,0 1,0.1 1.3,0.2 0.3,0.1 0.6,0.3 0.7,0.5 0.1,0.2 0.3,0.4 0.3,0.7 0,0.2 0.1,0.5 0.1,1 v 1.4 c 0,1 0,1.6 0.1,1.9 0.1,0.3 0.1,0.5 0.3,0.7 h -1.1 c -0.1,-0.2 -0.2,-0.5 -0.2,-0.8 z m -0.1,-2.3 c -0.4,0.2 -1,0.3 -1.7,0.4 -0.4,0.1 -0.7,0.1 -0.9,0.2 -0.2,0.1 -0.3,0.2 -0.4,0.3 -0.1,0.1 -0.1,0.3 -0.1,0.5 0,0.3 0.1,0.5 0.3,0.7 0.2,0.2 0.5,0.3 0.9,0.3 0.4,0 0.8,-0.1 1.1,-0.3 0.3,-0.2 0.5,-0.4 0.7,-0.7 0.1,-0.2 0.2,-0.6 0.2,-1.1 v -0.3 z"
   id="path1267" />
		<path
   d="m 682.8,813.6 -0.1,-1 c 0.2,0.1 0.4,0.1 0.6,0.1 0.2,0 0.4,0 0.6,-0.1 0.2,-0.1 0.3,-0.2 0.3,-0.3 0.1,-0.1 0.2,-0.4 0.3,-0.8 0,-0.1 0.1,-0.1 0.1,-0.3 l -2.4,-6.2 h 1.1 l 1.3,3.6 c 0.2,0.5 0.3,0.9 0.5,1.4 0.1,-0.5 0.3,-1 0.4,-1.4 l 1.3,-3.6 h 1.1 l -2.4,6.3 c -0.3,0.7 -0.5,1.2 -0.6,1.4 -0.2,0.3 -0.4,0.6 -0.6,0.8 -0.2,0.2 -0.5,0.2 -0.9,0.2 -0.1,0 -0.4,0 -0.6,-0.1 z"
   id="path1269" />
		<path
   d="m 693.1,809.2 1.1,0.1 c -0.2,0.6 -0.5,1.1 -1,1.5 -0.5,0.4 -1.1,0.5 -1.8,0.5 -0.9,0 -1.6,-0.3 -2.2,-0.8 -0.6,-0.5 -0.8,-1.3 -0.8,-2.4 0,-1 0.3,-1.9 0.8,-2.4 0.5,-0.5 1.2,-0.9 2.1,-0.9 0.8,0 1.5,0.3 2,0.8 0.5,0.5 0.8,1.4 0.8,2.4 0,0.1 0,0.2 0,0.3 h -4.6 c 0,0.7 0.2,1.2 0.6,1.6 0.4,0.4 0.8,0.5 1.3,0.5 0.4,0 0.7,-0.1 1,-0.3 0.3,-0.2 0.5,-0.5 0.7,-0.9 z m -3.5,-1.7 h 3.5 c 0,-0.5 -0.2,-0.9 -0.4,-1.2 -0.3,-0.4 -0.8,-0.6 -1.3,-0.6 -0.5,0 -0.9,0.2 -1.2,0.5 -0.3,0.3 -0.5,0.7 -0.6,1.3 z"
   id="path1271" />
		<path
   d="M 695.5,811.2 V 805 h 0.9 v 0.9 c 0.2,-0.4 0.5,-0.7 0.7,-0.9 0.2,-0.2 0.4,-0.2 0.7,-0.2 0.4,0 0.7,0.1 1.1,0.3 l -0.4,1 c -0.3,-0.2 -0.5,-0.2 -0.8,-0.2 -0.2,0 -0.4,0.1 -0.6,0.2 -0.2,0.1 -0.3,0.3 -0.4,0.6 -0.1,0.4 -0.2,0.8 -0.2,1.2 v 3.3 z"
   id="path1273" />
		<path
   d="m 702,802.8 h 6 v 8.4 h -6 z m 0.6,7.3 2,-3.1 -2,-3.1 z m 4.5,-6.7 H 703 l 2,3.1 z m 0,7.2 -2,-3.1 -2,3.1 z m 0.3,-0.5 V 804 l -2,3.1 z"
   id="path1275" />
		<path
   d="m 711.4,802.8 h 6 v 8.4 h -6 z m 0.6,7.3 2,-3.1 -2,-3.1 z m 4.4,-6.7 h -4.1 l 2,3.1 z m 0,7.2 -2,-3.1 -2,3.1 z m 0.4,-0.5 V 804 l -2,3.1 z"
   id="path1277" />
		<path
   d="m 719.3,806.9 v -3.2 c -0.4,0.3 -0.8,0.5 -1.3,0.7 v -0.7 c 0.2,-0.1 0.5,-0.2 0.8,-0.4 0.3,-0.2 0.5,-0.4 0.7,-0.7 h 0.6 v 4.4 h -0.8 z"
   id="path1279" />
		<path
   d="m 725.2,804.7 c 0,0.7 -0.1,1.2 -0.4,1.6 -0.3,0.4 -0.8,0.6 -1.4,0.6 -1.2,0 -1.8,-0.8 -1.8,-2.3 0,-0.7 0.1,-1.2 0.4,-1.6 0.3,-0.4 0.8,-0.6 1.4,-0.6 1.2,0.1 1.8,0.8 1.8,2.3 z m -0.9,0 c 0,-0.5 0,-0.8 -0.1,-1 -0.1,-0.4 -0.4,-0.6 -0.8,-0.6 -0.4,0 -0.6,0.2 -0.8,0.6 -0.1,0.2 -0.1,0.6 -0.1,1 0,0.4 0,0.8 0.1,1 0.1,0.4 0.4,0.6 0.8,0.6 0.4,0 0.6,-0.2 0.8,-0.6 0,-0.2 0.1,-0.5 0.1,-1 z"
   id="path1281" />
	</g>
	<g
   class="st2"
   id="g1315">
		<path
   d="m 780.6,811.2 v -8.6 h 1.1 v 3.5 h 4.5 v -3.5 h 1.1 v 8.6 h -1.1 v -4 h -4.5 v 4 z"
   id="path1285" />
		<path
   d="m 789.1,803.8 v -1.2 h 1.1 v 1.2 z m 0,7.4 V 805 h 1.1 v 6.2 z"
   id="path1287" />
		<path
   d="m 795.8,811.2 v -0.8 c -0.4,0.6 -1,0.9 -1.7,0.9 -0.5,0 -1,-0.1 -1.4,-0.4 -0.4,-0.3 -0.7,-0.7 -1,-1.1 -0.3,-0.4 -0.3,-1.1 -0.3,-1.7 0,-0.6 0.1,-1.2 0.3,-1.7 0.2,-0.5 0.5,-0.9 0.9,-1.2 0.4,-0.3 0.9,-0.4 1.4,-0.4 0.4,0 0.7,0.1 1,0.2 0.3,0.1 0.5,0.4 0.7,0.6 v -3.1 h 1 v 8.6 h -0.9 z m -3.3,-3.1 c 0,0.8 0.2,1.4 0.5,1.8 0.3,0.4 0.7,0.6 1.2,0.6 0.5,0 0.9,-0.2 1.2,-0.6 0.3,-0.4 0.5,-1 0.5,-1.7 0,-0.9 -0.2,-1.5 -0.5,-1.9 -0.3,-0.4 -0.7,-0.6 -1.2,-0.6 -0.5,0 -0.9,0.2 -1.2,0.6 -0.3,0.4 -0.5,1 -0.5,1.8 z"
   id="path1289" />
		<path
   d="m 802.5,811.2 v -0.8 c -0.4,0.6 -1,0.9 -1.7,0.9 -0.5,0 -1,-0.1 -1.4,-0.4 -0.4,-0.3 -0.7,-0.7 -1,-1.1 -0.3,-0.4 -0.3,-1.1 -0.3,-1.7 0,-0.6 0.1,-1.2 0.3,-1.7 0.2,-0.5 0.5,-0.9 0.9,-1.2 0.4,-0.3 0.9,-0.4 1.4,-0.4 0.4,0 0.7,0.1 1,0.2 0.3,0.1 0.5,0.4 0.7,0.6 v -3.1 h 1 v 8.6 h -0.9 z m -3.3,-3.1 c 0,0.8 0.2,1.4 0.5,1.8 0.3,0.4 0.7,0.6 1.2,0.6 0.5,0 0.9,-0.2 1.2,-0.6 0.3,-0.4 0.5,-1 0.5,-1.7 0,-0.9 -0.2,-1.5 -0.5,-1.9 -0.3,-0.4 -0.7,-0.6 -1.2,-0.6 -0.5,0 -0.9,0.2 -1.2,0.6 -0.3,0.4 -0.5,1 -0.5,1.8 z"
   id="path1291" />
		<path
   d="m 809.4,809.2 1.1,0.1 c -0.2,0.6 -0.5,1.1 -1,1.5 -0.5,0.4 -1.1,0.5 -1.8,0.5 -0.9,0 -1.6,-0.3 -2.2,-0.8 -0.6,-0.5 -0.8,-1.3 -0.8,-2.4 0,-1 0.3,-1.9 0.8,-2.4 0.5,-0.5 1.2,-0.9 2.1,-0.9 0.8,0 1.5,0.3 2,0.8 0.5,0.5 0.8,1.4 0.8,2.4 0,0.1 0,0.2 0,0.3 h -4.6 c 0,0.7 0.2,1.2 0.6,1.6 0.4,0.4 0.8,0.5 1.3,0.5 0.4,0 0.7,-0.1 1,-0.3 0.3,-0.2 0.5,-0.5 0.7,-0.9 z m -3.5,-1.7 h 3.5 c 0,-0.5 -0.2,-0.9 -0.4,-1.2 -0.3,-0.4 -0.8,-0.6 -1.3,-0.6 -0.5,0 -0.9,0.2 -1.2,0.5 -0.3,0.3 -0.5,0.7 -0.6,1.3 z"
   id="path1293" />
		<path
   d="M 811.8,811.2 V 805 h 0.9 v 0.9 c 0.5,-0.7 1.1,-1 2,-1 0.4,0 0.7,0.1 1,0.2 0.3,0.1 0.5,0.3 0.7,0.5 0.2,0.2 0.3,0.5 0.3,0.8 0,0.2 0.1,0.5 0.1,1 v 3.8 h -1.1 v -3.8 c 0,-0.4 0,-0.8 -0.1,-1 -0.1,-0.2 -0.2,-0.4 -0.4,-0.5 -0.2,-0.1 -0.5,-0.2 -0.7,-0.2 -0.4,0 -0.8,0.1 -1.2,0.4 -0.4,0.3 -0.5,0.8 -0.5,1.6 v 3.4 h -1 z"
   id="path1295" />
		<path
   d="m 821.9,811.2 v -8.6 h 1.1 v 7.6 h 4.2 v 1 z"
   id="path1297" />
		<path
   d="m 832.6,810.4 c -0.4,0.3 -0.8,0.6 -1.1,0.7 -0.3,0.1 -0.7,0.2 -1.2,0.2 -0.7,0 -1.2,-0.2 -1.6,-0.5 -0.4,-0.3 -0.6,-0.8 -0.6,-1.3 0,-0.3 0.1,-0.6 0.2,-0.8 0.1,-0.2 0.3,-0.5 0.5,-0.6 0.2,-0.1 0.5,-0.3 0.8,-0.3 0.2,-0.1 0.5,-0.1 0.9,-0.2 0.9,-0.1 1.5,-0.2 1.9,-0.4 0,-0.1 0,-0.2 0,-0.3 0,-0.4 -0.1,-0.7 -0.3,-0.9 -0.3,-0.2 -0.7,-0.4 -1.2,-0.4 -0.5,0 -0.9,0.1 -1.1,0.3 -0.2,0.2 -0.4,0.5 -0.5,0.9 l -1,-0.1 c 0.1,-0.4 0.2,-0.8 0.5,-1.1 0.3,-0.3 0.5,-0.5 0.9,-0.6 0.4,-0.1 0.9,-0.2 1.4,-0.2 0.5,0 1,0.1 1.3,0.2 0.3,0.1 0.6,0.3 0.7,0.5 0.1,0.2 0.3,0.4 0.3,0.7 0,0.2 0.1,0.5 0.1,1 v 1.4 c 0,1 0,1.6 0.1,1.9 0.1,0.3 0.1,0.5 0.3,0.7 h -1.1 c -0.1,-0.2 -0.2,-0.5 -0.2,-0.8 z m -0.1,-2.3 c -0.4,0.2 -1,0.3 -1.7,0.4 -0.4,0.1 -0.7,0.1 -0.9,0.2 -0.2,0.1 -0.3,0.2 -0.4,0.3 -0.1,0.1 -0.1,0.3 -0.1,0.5 0,0.3 0.1,0.5 0.3,0.7 0.2,0.2 0.5,0.3 0.9,0.3 0.4,0 0.8,-0.1 1.1,-0.3 0.3,-0.2 0.5,-0.4 0.7,-0.7 0.1,-0.2 0.2,-0.6 0.2,-1.1 v -0.3 z"
   id="path1299" />
		<path
   d="m 835.1,813.6 -0.1,-1 c 0.2,0.1 0.4,0.1 0.6,0.1 0.2,0 0.4,0 0.6,-0.1 0.2,-0.1 0.3,-0.2 0.3,-0.3 0.1,-0.1 0.2,-0.4 0.3,-0.8 0,-0.1 0.1,-0.1 0.1,-0.3 l -2.4,-6.2 h 1.1 l 1.3,3.6 c 0.2,0.5 0.3,0.9 0.5,1.4 0.1,-0.5 0.3,-1 0.4,-1.4 l 1.3,-3.6 h 1.1 l -2.4,6.3 c -0.3,0.7 -0.5,1.2 -0.6,1.4 -0.2,0.3 -0.4,0.6 -0.6,0.8 -0.2,0.2 -0.5,0.2 -0.9,0.2 -0.1,0 -0.3,0 -0.6,-0.1 z"
   id="path1301" />
		<path
   d="m 845.4,809.2 1.1,0.1 c -0.2,0.6 -0.5,1.1 -1,1.5 -0.5,0.4 -1.1,0.5 -1.8,0.5 -0.9,0 -1.6,-0.3 -2.2,-0.8 -0.6,-0.5 -0.8,-1.3 -0.8,-2.4 0,-1 0.3,-1.9 0.8,-2.4 0.5,-0.5 1.2,-0.9 2.1,-0.9 0.8,0 1.5,0.3 2,0.8 0.5,0.5 0.8,1.4 0.8,2.4 0,0.1 0,0.2 0,0.3 h -4.6 c 0,0.7 0.2,1.2 0.6,1.6 0.4,0.4 0.8,0.5 1.3,0.5 0.4,0 0.7,-0.1 1,-0.3 0.3,-0.2 0.6,-0.5 0.7,-0.9 z m -3.4,-1.7 h 3.5 c 0,-0.5 -0.2,-0.9 -0.4,-1.2 -0.3,-0.4 -0.8,-0.6 -1.3,-0.6 -0.5,0 -0.9,0.2 -1.2,0.5 -0.3,0.3 -0.6,0.7 -0.6,1.3 z"
   id="path1303" />
		<path
   d="M 847.8,811.2 V 805 h 0.9 v 0.9 c 0.2,-0.4 0.5,-0.7 0.7,-0.9 0.2,-0.2 0.4,-0.2 0.7,-0.2 0.4,0 0.7,0.1 1.1,0.3 l -0.4,1 c -0.3,-0.2 -0.5,-0.2 -0.8,-0.2 -0.2,0 -0.4,0.1 -0.6,0.2 -0.2,0.1 -0.3,0.3 -0.4,0.6 -0.1,0.4 -0.2,0.8 -0.2,1.2 v 3.3 z"
   id="path1305" />
		<path
   d="m 854.4,802.8 h 6 v 8.4 h -6 z m 0.6,7.3 2,-3.1 -2,-3.1 z m 4.4,-6.7 h -4.1 l 2,3.1 z m 0,7.2 -2,-3.1 -2,3.1 z m 0.4,-0.5 V 804 l -2,3.1 z"
   id="path1307" />
		<path
   d="m 863.7,802.8 h 6 v 8.4 h -6 z m 0.6,7.3 2,-3.1 -2,-3.1 z m 4.5,-6.7 h -4.1 l 2,3.1 z m 0,7.2 -2,-3.1 -2,3.1 z m 0.3,-0.5 V 804 l -2,3.1 z"
   id="path1309" />
		<path
   d="m 871.7,806.9 v -3.2 c -0.4,0.3 -0.8,0.5 -1.3,0.7 v -0.7 c 0.2,-0.1 0.5,-0.2 0.8,-0.4 0.3,-0.2 0.5,-0.4 0.7,-0.7 h 0.6 v 4.4 h -0.8 z"
   id="path1311" />
		<path
   d="m 877.4,803.6 h -0.9 c -0.1,-0.3 -0.3,-0.5 -0.7,-0.5 -0.6,0 -0.9,0.4 -0.9,1.3 0.2,-0.3 0.5,-0.4 1,-0.4 0.5,0 0.8,0.1 1.1,0.4 0.3,0.3 0.5,0.6 0.5,1.1 0,0.5 -0.2,0.8 -0.5,1.1 -0.3,0.3 -0.7,0.4 -1.2,0.4 -1.2,0 -1.8,-0.7 -1.8,-2.1 0,-1.6 0.6,-2.4 1.9,-2.4 0.4,0 0.8,0.1 1.1,0.4 0.2,0.2 0.3,0.4 0.4,0.7 z m -2.4,1.9 c 0,0.5 0.3,0.8 0.8,0.8 0.2,0 0.4,-0.1 0.6,-0.2 0.2,-0.1 0.2,-0.3 0.2,-0.6 0,-0.5 -0.3,-0.8 -0.8,-0.8 -0.6,0.1 -0.8,0.3 -0.8,0.8 z"
   id="path1313" />
	</g>
	<g
   class="st2"
   id="g1345">
		<path
   d="m 921.6,811.2 v -8.6 h 1.1 v 3.5 h 4.5 v -3.5 h 1.1 v 8.6 h -1.1 v -4 h -4.5 v 4 z"
   id="path1317" />
		<path
   d="m 930.1,803.8 v -1.2 h 1.1 v 1.2 z m 0,7.4 V 805 h 1.1 v 6.2 z"
   id="path1319" />
		<path
   d="m 936.8,811.2 v -0.8 c -0.4,0.6 -1,0.9 -1.7,0.9 -0.5,0 -1,-0.1 -1.4,-0.4 -0.4,-0.3 -0.7,-0.7 -1,-1.1 -0.3,-0.4 -0.3,-1.1 -0.3,-1.7 0,-0.6 0.1,-1.2 0.3,-1.7 0.2,-0.5 0.5,-0.9 0.9,-1.2 0.4,-0.3 0.9,-0.4 1.4,-0.4 0.4,0 0.7,0.1 1,0.2 0.3,0.1 0.5,0.4 0.7,0.6 v -3.1 h 1 v 8.6 h -0.9 z m -3.3,-3.1 c 0,0.8 0.2,1.4 0.5,1.8 0.3,0.4 0.7,0.6 1.2,0.6 0.5,0 0.9,-0.2 1.2,-0.6 0.3,-0.4 0.5,-1 0.5,-1.7 0,-0.9 -0.2,-1.5 -0.5,-1.9 -0.3,-0.4 -0.7,-0.6 -1.2,-0.6 -0.5,0 -0.9,0.2 -1.2,0.6 -0.3,0.4 -0.5,1 -0.5,1.8 z"
   id="path1321" />
		<path
   d="m 943.5,811.2 v -0.8 c -0.4,0.6 -1,0.9 -1.7,0.9 -0.5,0 -1,-0.1 -1.4,-0.4 -0.4,-0.3 -0.7,-0.7 -1,-1.1 -0.3,-0.4 -0.3,-1.1 -0.3,-1.7 0,-0.6 0.1,-1.2 0.3,-1.7 0.2,-0.5 0.5,-0.9 0.9,-1.2 0.4,-0.3 0.9,-0.4 1.4,-0.4 0.4,0 0.7,0.1 1,0.2 0.3,0.1 0.5,0.4 0.7,0.6 v -3.1 h 1 v 8.6 h -0.9 z m -3.3,-3.1 c 0,0.8 0.2,1.4 0.5,1.8 0.3,0.4 0.7,0.6 1.2,0.6 0.5,0 0.9,-0.2 1.2,-0.6 0.3,-0.4 0.5,-1 0.5,-1.7 0,-0.9 -0.2,-1.5 -0.5,-1.9 -0.3,-0.4 -0.7,-0.6 -1.2,-0.6 -0.5,0 -0.9,0.2 -1.2,0.6 -0.3,0.4 -0.5,1 -0.5,1.8 z"
   id="path1323" />
		<path
   d="m 950.4,809.2 1.1,0.1 c -0.2,0.6 -0.5,1.1 -1,1.5 -0.5,0.4 -1.1,0.5 -1.8,0.5 -0.9,0 -1.6,-0.3 -2.2,-0.8 -0.6,-0.5 -0.8,-1.3 -0.8,-2.4 0,-1 0.3,-1.9 0.8,-2.4 0.5,-0.5 1.2,-0.9 2.1,-0.9 0.8,0 1.5,0.3 2,0.8 0.5,0.5 0.8,1.4 0.8,2.4 0,0.1 0,0.2 0,0.3 h -4.6 c 0,0.7 0.2,1.2 0.6,1.6 0.4,0.4 0.8,0.5 1.3,0.5 0.4,0 0.7,-0.1 1,-0.3 0.3,-0.2 0.5,-0.5 0.7,-0.9 z m -3.5,-1.7 h 3.5 c 0,-0.5 -0.2,-0.9 -0.4,-1.2 -0.3,-0.4 -0.8,-0.6 -1.3,-0.6 -0.5,0 -0.9,0.2 -1.2,0.5 -0.3,0.3 -0.5,0.7 -0.6,1.3 z"
   id="path1325" />
		<path
   d="M 952.8,811.2 V 805 h 0.9 v 0.9 c 0.5,-0.7 1.1,-1 2,-1 0.4,0 0.7,0.1 1,0.2 0.3,0.1 0.5,0.3 0.7,0.5 0.2,0.2 0.3,0.5 0.3,0.8 0,0.2 0.1,0.5 0.1,1 v 3.8 h -1.1 v -3.8 c 0,-0.4 0,-0.8 -0.1,-1 -0.1,-0.2 -0.2,-0.4 -0.4,-0.5 -0.2,-0.1 -0.5,-0.2 -0.7,-0.2 -0.4,0 -0.8,0.1 -1.2,0.4 -0.4,0.3 -0.5,0.8 -0.5,1.6 v 3.4 h -1 z"
   id="path1327" />
		<path
   d="m 962.9,811.2 v -8.6 h 1.1 v 7.6 h 4.2 v 1 z"
   id="path1329" />
		<path
   d="m 973.6,810.4 c -0.4,0.3 -0.8,0.6 -1.1,0.7 -0.3,0.1 -0.7,0.2 -1.2,0.2 -0.7,0 -1.2,-0.2 -1.6,-0.5 -0.4,-0.3 -0.6,-0.8 -0.6,-1.3 0,-0.3 0.1,-0.6 0.2,-0.8 0.1,-0.2 0.3,-0.5 0.5,-0.6 0.2,-0.1 0.5,-0.3 0.8,-0.3 0.2,-0.1 0.5,-0.1 0.9,-0.2 0.9,-0.1 1.5,-0.2 1.9,-0.4 0,-0.1 0,-0.2 0,-0.3 0,-0.4 -0.1,-0.7 -0.3,-0.9 -0.3,-0.2 -0.7,-0.4 -1.2,-0.4 -0.5,0 -0.9,0.1 -1.1,0.3 -0.2,0.2 -0.4,0.5 -0.5,0.9 l -1,-0.1 c 0.1,-0.4 0.2,-0.8 0.5,-1.1 0.3,-0.3 0.5,-0.5 0.9,-0.6 0.4,-0.1 0.9,-0.2 1.4,-0.2 0.5,0 1,0.1 1.3,0.2 0.3,0.1 0.6,0.3 0.7,0.5 0.1,0.2 0.3,0.4 0.3,0.7 0,0.2 0.1,0.5 0.1,1 v 1.4 c 0,1 0,1.6 0.1,1.9 0.1,0.3 0.1,0.5 0.3,0.7 h -1.1 c -0.1,-0.2 -0.2,-0.5 -0.2,-0.8 z m -0.1,-2.3 c -0.4,0.2 -1,0.3 -1.7,0.4 -0.4,0.1 -0.7,0.1 -0.9,0.2 -0.2,0.1 -0.3,0.2 -0.4,0.3 -0.1,0.1 -0.1,0.3 -0.1,0.5 0,0.3 0.1,0.5 0.3,0.7 0.2,0.2 0.5,0.3 0.9,0.3 0.4,0 0.8,-0.1 1.1,-0.3 0.3,-0.2 0.5,-0.4 0.7,-0.7 0.1,-0.2 0.2,-0.6 0.2,-1.1 v -0.3 z"
   id="path1331" />
		<path
   d="m 976.1,813.6 -0.1,-1 c 0.2,0.1 0.4,0.1 0.6,0.1 0.2,0 0.4,0 0.6,-0.1 0.2,-0.1 0.3,-0.2 0.3,-0.3 0.1,-0.1 0.2,-0.4 0.3,-0.8 0,-0.1 0.1,-0.1 0.1,-0.3 l -2.4,-6.2 h 1.1 l 1.3,3.6 c 0.2,0.5 0.3,0.9 0.5,1.4 0.1,-0.5 0.3,-1 0.4,-1.4 l 1.3,-3.6 h 1.1 l -2.4,6.3 c -0.3,0.7 -0.5,1.2 -0.6,1.4 -0.2,0.3 -0.4,0.6 -0.6,0.8 -0.2,0.2 -0.5,0.2 -0.9,0.2 -0.1,0 -0.3,0 -0.6,-0.1 z"
   id="path1333" />
		<path
   d="m 986.4,809.2 1.1,0.1 c -0.2,0.6 -0.5,1.1 -1,1.5 -0.5,0.4 -1.1,0.5 -1.8,0.5 -0.9,0 -1.6,-0.3 -2.2,-0.8 -0.6,-0.5 -0.8,-1.3 -0.8,-2.4 0,-1 0.3,-1.9 0.8,-2.4 0.5,-0.5 1.2,-0.9 2.1,-0.9 0.8,0 1.5,0.3 2,0.8 0.5,0.5 0.8,1.4 0.8,2.4 0,0.1 0,0.2 0,0.3 h -4.6 c 0,0.7 0.2,1.2 0.6,1.6 0.4,0.4 0.8,0.5 1.3,0.5 0.4,0 0.7,-0.1 1,-0.3 0.3,-0.2 0.6,-0.5 0.7,-0.9 z m -3.4,-1.7 h 3.5 c 0,-0.5 -0.2,-0.9 -0.4,-1.2 -0.3,-0.4 -0.8,-0.6 -1.3,-0.6 -0.5,0 -0.9,0.2 -1.2,0.5 -0.3,0.3 -0.6,0.7 -0.6,1.3 z"
   id="path1335" />
		<path
   d="M 988.8,811.2 V 805 h 0.9 v 0.9 c 0.2,-0.4 0.5,-0.7 0.7,-0.9 0.2,-0.2 0.4,-0.2 0.7,-0.2 0.4,0 0.7,0.1 1.1,0.3 l -0.4,1 c -0.3,-0.2 -0.5,-0.2 -0.8,-0.2 -0.2,0 -0.4,0.1 -0.6,0.2 -0.2,0.1 -0.3,0.3 -0.4,0.6 -0.1,0.4 -0.2,0.8 -0.2,1.2 v 3.3 z"
   id="path1337" />
		<path
   d="m 995.4,802.8 h 6 v 8.4 h -6 z m 0.6,7.3 2,-3.1 -2,-3.1 z m 4.4,-6.7 h -4.1 l 2,3.1 z m 0,7.2 -2,-3.1 -2,3.1 z m 0.4,-0.5 V 804 l -2,3.1 z"
   id="path1339" />
		<path
   d="m 1004.7,802.8 h 6 v 8.4 h -6 z m 0.6,7.3 2,-3.1 -2,-3.1 z m 4.5,-6.7 h -4.1 l 2,3.1 z m 0,7.2 -2,-3.1 -2,3.1 z m 0.3,-0.5 V 804 l -2,3.1 z"
   id="path1341" />
		<path
   d="m 1011.9,804.6 c -0.5,-0.2 -0.8,-0.5 -0.8,-0.9 0,-0.7 0.5,-1.1 1.5,-1.1 0.4,0 0.8,0.1 1.1,0.2 0.4,0.2 0.5,0.5 0.5,0.9 0,0.4 -0.3,0.8 -0.8,0.9 0.7,0.2 1,0.5 1,1.1 0,0.4 -0.2,0.8 -0.6,1 -0.3,0.2 -0.7,0.3 -1.2,0.3 -0.5,0 -0.9,-0.1 -1.2,-0.3 -0.4,-0.2 -0.6,-0.6 -0.6,-1 0.2,-0.6 0.5,-1 1.1,-1.1 z m -0.1,1 c 0,0.5 0.3,0.7 0.9,0.7 0.2,0 0.4,-0.1 0.6,-0.2 0.2,-0.1 0.3,-0.3 0.3,-0.5 0,-0.2 -0.1,-0.4 -0.3,-0.6 -0.2,-0.1 -0.4,-0.2 -0.6,-0.2 -0.6,0.1 -0.9,0.3 -0.9,0.8 z m 0.2,-1.9 c 0,0.4 0.2,0.6 0.7,0.6 0.2,0 0.4,0 0.5,-0.1 0.2,-0.1 0.2,-0.3 0.2,-0.4 0,-0.2 -0.1,-0.3 -0.2,-0.5 -0.1,-0.1 -0.3,-0.1 -0.5,-0.1 -0.2,0 -0.3,0 -0.5,0.1 -0.1,0.1 -0.2,0.2 -0.2,0.4 z"
   id="path1343" />
	</g>
	<g
   class="st2"
   id="g1375">
		<path
   d="m 1062.6,811.2 v -8.6 h 1.1 v 3.5 h 4.5 v -3.5 h 1.1 v 8.6 h -1.1 v -4 h -4.5 v 4 z"
   id="path1347" />
		<path
   d="m 1071.1,803.8 v -1.2 h 1.1 v 1.2 z m 0,7.4 V 805 h 1.1 v 6.2 z"
   id="path1349" />
		<path
   d="m 1077.8,811.2 v -0.8 c -0.4,0.6 -1,0.9 -1.7,0.9 -0.5,0 -1,-0.1 -1.4,-0.4 -0.4,-0.3 -0.7,-0.7 -1,-1.1 -0.3,-0.4 -0.3,-1.1 -0.3,-1.7 0,-0.6 0.1,-1.2 0.3,-1.7 0.2,-0.5 0.5,-0.9 0.9,-1.2 0.4,-0.3 0.9,-0.4 1.4,-0.4 0.4,0 0.7,0.1 1,0.2 0.3,0.1 0.5,0.4 0.7,0.6 v -3.1 h 1 v 8.6 h -0.9 z m -3.3,-3.1 c 0,0.8 0.2,1.4 0.5,1.8 0.3,0.4 0.7,0.6 1.2,0.6 0.5,0 0.9,-0.2 1.2,-0.6 0.3,-0.4 0.5,-1 0.5,-1.7 0,-0.9 -0.2,-1.5 -0.5,-1.9 -0.3,-0.4 -0.7,-0.6 -1.2,-0.6 -0.5,0 -0.9,0.2 -1.2,0.6 -0.3,0.4 -0.5,1 -0.5,1.8 z"
   id="path1351" />
		<path
   d="m 1084.5,811.2 v -0.8 c -0.4,0.6 -1,0.9 -1.7,0.9 -0.5,0 -1,-0.1 -1.4,-0.4 -0.4,-0.3 -0.7,-0.7 -1,-1.1 -0.3,-0.4 -0.3,-1.1 -0.3,-1.7 0,-0.6 0.1,-1.2 0.3,-1.7 0.2,-0.5 0.5,-0.9 0.9,-1.2 0.4,-0.3 0.9,-0.4 1.4,-0.4 0.4,0 0.7,0.1 1,0.2 0.3,0.1 0.5,0.4 0.7,0.6 v -3.1 h 1 v 8.6 h -0.9 z m -3.3,-3.1 c 0,0.8 0.2,1.4 0.5,1.8 0.3,0.4 0.7,0.6 1.2,0.6 0.5,0 0.9,-0.2 1.2,-0.6 0.3,-0.4 0.5,-1 0.5,-1.7 0,-0.9 -0.2,-1.5 -0.5,-1.9 -0.3,-0.4 -0.7,-0.6 -1.2,-0.6 -0.5,0 -0.9,0.2 -1.2,0.6 -0.3,0.4 -0.5,1 -0.5,1.8 z"
   id="path1353" />
		<path
   d="m 1091.4,809.2 1.1,0.1 c -0.2,0.6 -0.5,1.1 -1,1.5 -0.5,0.4 -1.1,0.5 -1.8,0.5 -0.9,0 -1.6,-0.3 -2.2,-0.8 -0.6,-0.5 -0.8,-1.3 -0.8,-2.4 0,-1 0.3,-1.9 0.8,-2.4 0.5,-0.5 1.2,-0.9 2.1,-0.9 0.8,0 1.5,0.3 2,0.8 0.5,0.5 0.8,1.4 0.8,2.4 0,0.1 0,0.2 0,0.3 h -4.6 c 0,0.7 0.2,1.2 0.6,1.6 0.4,0.4 0.8,0.5 1.3,0.5 0.4,0 0.7,-0.1 1,-0.3 0.3,-0.2 0.5,-0.5 0.7,-0.9 z m -3.5,-1.7 h 3.5 c 0,-0.5 -0.2,-0.9 -0.4,-1.2 -0.3,-0.4 -0.8,-0.6 -1.3,-0.6 -0.5,0 -0.9,0.2 -1.2,0.5 -0.3,0.3 -0.5,0.7 -0.6,1.3 z"
   id="path1355" />
		<path
   d="M 1093.8,811.2 V 805 h 0.9 v 0.9 c 0.5,-0.7 1.1,-1 2,-1 0.4,0 0.7,0.1 1,0.2 0.3,0.1 0.5,0.3 0.7,0.5 0.2,0.2 0.3,0.5 0.3,0.8 0,0.2 0.1,0.5 0.1,1 v 3.8 h -1.1 v -3.8 c 0,-0.4 0,-0.8 -0.1,-1 -0.1,-0.2 -0.2,-0.4 -0.4,-0.5 -0.2,-0.1 -0.5,-0.2 -0.7,-0.2 -0.4,0 -0.8,0.1 -1.2,0.4 -0.4,0.3 -0.5,0.8 -0.5,1.6 v 3.4 h -1 z"
   id="path1357" />
		<path
   d="m 1103.9,811.2 v -8.6 h 1.1 v 7.6 h 4.2 v 1 z"
   id="path1359" />
		<path
   d="m 1114.6,810.4 c -0.4,0.3 -0.8,0.6 -1.1,0.7 -0.3,0.1 -0.7,0.2 -1.2,0.2 -0.7,0 -1.2,-0.2 -1.6,-0.5 -0.4,-0.3 -0.6,-0.8 -0.6,-1.3 0,-0.3 0.1,-0.6 0.2,-0.8 0.1,-0.2 0.3,-0.5 0.5,-0.6 0.2,-0.1 0.5,-0.3 0.8,-0.3 0.2,-0.1 0.5,-0.1 0.9,-0.2 0.9,-0.1 1.5,-0.2 1.9,-0.4 0,-0.1 0,-0.2 0,-0.3 0,-0.4 -0.1,-0.7 -0.3,-0.9 -0.3,-0.2 -0.7,-0.4 -1.2,-0.4 -0.5,0 -0.9,0.1 -1.1,0.3 -0.2,0.2 -0.4,0.5 -0.5,0.9 l -1,-0.1 c 0.1,-0.4 0.2,-0.8 0.5,-1.1 0.3,-0.3 0.5,-0.5 0.9,-0.6 0.4,-0.1 0.9,-0.2 1.4,-0.2 0.5,0 1,0.1 1.3,0.2 0.3,0.1 0.6,0.3 0.7,0.5 0.1,0.2 0.3,0.4 0.3,0.7 0,0.2 0.1,0.5 0.1,1 v 1.4 c 0,1 0,1.6 0.1,1.9 0.1,0.3 0.1,0.5 0.3,0.7 h -1.1 c -0.1,-0.2 -0.2,-0.5 -0.2,-0.8 z m -0.1,-2.3 c -0.4,0.2 -1,0.3 -1.7,0.4 -0.4,0.1 -0.7,0.1 -0.9,0.2 -0.2,0.1 -0.3,0.2 -0.4,0.3 -0.1,0.1 -0.1,0.3 -0.1,0.5 0,0.3 0.1,0.5 0.3,0.7 0.2,0.2 0.5,0.3 0.9,0.3 0.4,0 0.8,-0.1 1.1,-0.3 0.3,-0.2 0.5,-0.4 0.7,-0.7 0.1,-0.2 0.2,-0.6 0.2,-1.1 v -0.3 z"
   id="path1361" />
		<path
   d="m 1117.1,813.6 -0.1,-1 c 0.2,0.1 0.4,0.1 0.6,0.1 0.2,0 0.4,0 0.6,-0.1 0.2,-0.1 0.3,-0.2 0.3,-0.3 0.1,-0.1 0.2,-0.4 0.3,-0.8 0,-0.1 0.1,-0.1 0.1,-0.3 l -2.4,-6.2 h 1.1 l 1.3,3.6 c 0.2,0.5 0.3,0.9 0.5,1.4 0.1,-0.5 0.3,-1 0.4,-1.4 l 1.3,-3.6 h 1.1 l -2.4,6.3 c -0.3,0.7 -0.5,1.2 -0.6,1.4 -0.2,0.3 -0.4,0.6 -0.6,0.8 -0.2,0.2 -0.5,0.2 -0.9,0.2 -0.1,0 -0.3,0 -0.6,-0.1 z"
   id="path1363" />
		<path
   d="m 1127.4,809.2 1.1,0.1 c -0.2,0.6 -0.5,1.1 -1,1.5 -0.5,0.4 -1.1,0.5 -1.8,0.5 -0.9,0 -1.6,-0.3 -2.2,-0.8 -0.6,-0.5 -0.8,-1.3 -0.8,-2.4 0,-1 0.3,-1.9 0.8,-2.4 0.5,-0.5 1.2,-0.9 2.1,-0.9 0.8,0 1.5,0.3 2,0.8 0.5,0.5 0.8,1.4 0.8,2.4 0,0.1 0,0.2 0,0.3 h -4.6 c 0,0.7 0.2,1.2 0.6,1.6 0.4,0.4 0.8,0.5 1.3,0.5 0.4,0 0.7,-0.1 1,-0.3 0.3,-0.2 0.6,-0.5 0.7,-0.9 z m -3.4,-1.7 h 3.5 c 0,-0.5 -0.2,-0.9 -0.4,-1.2 -0.3,-0.4 -0.8,-0.6 -1.3,-0.6 -0.5,0 -0.9,0.2 -1.2,0.5 -0.3,0.3 -0.6,0.7 -0.6,1.3 z"
   id="path1365" />
		<path
   d="M 1129.8,811.2 V 805 h 0.9 v 0.9 c 0.2,-0.4 0.5,-0.7 0.7,-0.9 0.2,-0.2 0.4,-0.2 0.7,-0.2 0.4,0 0.7,0.1 1.1,0.3 l -0.4,1 c -0.3,-0.2 -0.5,-0.2 -0.8,-0.2 -0.2,0 -0.4,0.1 -0.6,0.2 -0.2,0.1 -0.3,0.3 -0.4,0.6 -0.1,0.4 -0.2,0.8 -0.2,1.2 v 3.3 z"
   id="path1367" />
		<path
   d="m 1136.4,802.8 h 6 v 8.4 h -6 z m 0.6,7.3 2,-3.1 -2,-3.1 z m 4.4,-6.7 h -4.1 l 2,3.1 z m 0,7.2 -2,-3.1 -2,3.1 z m 0.4,-0.5 V 804 l -2,3.1 z"
   id="path1369" />
		<path
   d="m 1145.7,802.8 h 6 v 8.4 h -6 z m 0.6,7.3 2,-3.1 -2,-3.1 z m 4.5,-6.7 h -4.1 l 2,3.1 z m 0,7.2 -2,-3.1 -2,3.1 z m 0.3,-0.5 V 804 l -2,3.1 z"
   id="path1371" />
		<path
   d="m 1151.9,806.9 c 0,-0.2 0.1,-0.4 0.3,-0.7 0.2,-0.3 0.7,-0.7 1.2,-1.1 0.5,-0.4 0.9,-0.7 1,-0.8 0.1,-0.2 0.2,-0.3 0.2,-0.5 0,-0.2 -0.1,-0.3 -0.2,-0.5 -0.1,-0.2 -0.3,-0.2 -0.6,-0.2 -0.3,0 -0.5,0 -0.6,0.1 -0.1,0.1 -0.2,0.3 -0.3,0.5 l -0.9,-0.1 c 0.1,-0.4 0.3,-0.8 0.6,-1 0.3,-0.2 0.7,-0.3 1.2,-0.3 0.6,0 1,0.1 1.3,0.3 0.3,0.2 0.4,0.5 0.4,0.8 0,0.3 -0.1,0.6 -0.3,0.9 -0.2,0.2 -0.6,0.6 -1.2,1 -0.3,0.2 -0.6,0.4 -0.7,0.6 h 2.3 v 0.7 h -3.7 z"
   id="path1373" />
	</g>
	<circle
   id="_x33__x5F_1"
   class="st1"
   cx="1096.7"
   cy="487"
   r="19" />
	<circle
   id="_x34__x5F_0"
   class="st1"
   cx="1237.7"
   cy="327"
   r="19" />
	<circle
   id="_x34__x5F_1"
   class="st1"
   cx="1237.7"
   cy="367"
   r="19" />
	<circle
   id="_x34__x5F_2"
   class="st1"
   cx="1237.7"
   cy="407"
   r="19" />
	<circle
   id="_x34__x5F_3"
   class="st1"
   cx="1237.7"
   cy="447"
   r="19" />
	<circle
   id="_x34__x5F_4"
   class="st1"
   cx="1237.7"
   cy="487"
   r="19" />
	<circle
   id="_x34__x5F_5"
   class="st1"
   cx="1237.7"
   cy="527"
   r="19" />
	<circle
   id="_x34__x5F_6"
   class="st1"
   cx="1237.7"
   cy="567"
   r="19" />
	<circle
   id="_x34__x5F_7"
   class="st1"
   cx="1237.7"
   cy="607"
   r="19" />
	<g
   class="st2"
   id="g1414">
		<path
   d="m 1203.6,811.2 v -8.6 h 1.1 v 3.5 h 4.5 v -3.5 h 1.1 v 8.6 h -1.1 v -4 h -4.5 v 4 z"
   id="path1386" />
		<path
   d="m 1212.1,803.8 v -1.2 h 1.1 v 1.2 z m 0,7.4 V 805 h 1.1 v 6.2 z"
   id="path1388" />
		<path
   d="m 1218.8,811.2 v -0.8 c -0.4,0.6 -1,0.9 -1.7,0.9 -0.5,0 -1,-0.1 -1.4,-0.4 -0.4,-0.3 -0.7,-0.7 -1,-1.1 -0.3,-0.4 -0.3,-1.1 -0.3,-1.7 0,-0.6 0.1,-1.2 0.3,-1.7 0.2,-0.5 0.5,-0.9 0.9,-1.2 0.4,-0.3 0.9,-0.4 1.4,-0.4 0.4,0 0.7,0.1 1,0.2 0.3,0.1 0.5,0.4 0.7,0.6 v -3.1 h 1 v 8.6 h -0.9 z m -3.3,-3.1 c 0,0.8 0.2,1.4 0.5,1.8 0.3,0.4 0.7,0.6 1.2,0.6 0.5,0 0.9,-0.2 1.2,-0.6 0.3,-0.4 0.5,-1 0.5,-1.7 0,-0.9 -0.2,-1.5 -0.5,-1.9 -0.3,-0.4 -0.7,-0.6 -1.2,-0.6 -0.5,0 -0.9,0.2 -1.2,0.6 -0.3,0.4 -0.5,1 -0.5,1.8 z"
   id="path1390" />
		<path
   d="m 1225.5,811.2 v -0.8 c -0.4,0.6 -1,0.9 -1.7,0.9 -0.5,0 -1,-0.1 -1.4,-0.4 -0.4,-0.3 -0.7,-0.7 -1,-1.1 -0.3,-0.4 -0.3,-1.1 -0.3,-1.7 0,-0.6 0.1,-1.2 0.3,-1.7 0.2,-0.5 0.5,-0.9 0.9,-1.2 0.4,-0.3 0.9,-0.4 1.4,-0.4 0.4,0 0.7,0.1 1,0.2 0.3,0.1 0.5,0.4 0.7,0.6 v -3.1 h 1 v 8.6 h -0.9 z m -3.3,-3.1 c 0,0.8 0.2,1.4 0.5,1.8 0.3,0.4 0.7,0.6 1.2,0.6 0.5,0 0.9,-0.2 1.2,-0.6 0.3,-0.4 0.5,-1 0.5,-1.7 0,-0.9 -0.2,-1.5 -0.5,-1.9 -0.3,-0.4 -0.7,-0.6 -1.2,-0.6 -0.5,0 -0.9,0.2 -1.2,0.6 -0.3,0.4 -0.5,1 -0.5,1.8 z"
   id="path1392" />
		<path
   d="m 1232.4,809.2 1.1,0.1 c -0.2,0.6 -0.5,1.1 -1,1.5 -0.5,0.4 -1.1,0.5 -1.8,0.5 -0.9,0 -1.6,-0.3 -2.2,-0.8 -0.6,-0.5 -0.8,-1.3 -0.8,-2.4 0,-1 0.3,-1.9 0.8,-2.4 0.5,-0.5 1.2,-0.9 2.1,-0.9 0.8,0 1.5,0.3 2,0.8 0.5,0.5 0.8,1.4 0.8,2.4 0,0.1 0,0.2 0,0.3 h -4.6 c 0,0.7 0.2,1.2 0.6,1.6 0.4,0.4 0.8,0.5 1.3,0.5 0.4,0 0.7,-0.1 1,-0.3 0.3,-0.2 0.5,-0.5 0.7,-0.9 z m -3.5,-1.7 h 3.5 c 0,-0.5 -0.2,-0.9 -0.4,-1.2 -0.3,-0.4 -0.8,-0.6 -1.3,-0.6 -0.5,0 -0.9,0.2 -1.2,0.5 -0.3,0.3 -0.5,0.7 -0.6,1.3 z"
   id="path1394" />
		<path
   d="M 1234.8,811.2 V 805 h 0.9 v 0.9 c 0.5,-0.7 1.1,-1 2,-1 0.4,0 0.7,0.1 1,0.2 0.3,0.1 0.5,0.3 0.7,0.5 0.2,0.2 0.3,0.5 0.3,0.8 0,0.2 0.1,0.5 0.1,1 v 3.8 h -1.1 v -3.8 c 0,-0.4 0,-0.8 -0.1,-1 -0.1,-0.2 -0.2,-0.4 -0.4,-0.5 -0.2,-0.1 -0.5,-0.2 -0.7,-0.2 -0.4,0 -0.8,0.1 -1.2,0.4 -0.4,0.3 -0.5,0.8 -0.5,1.6 v 3.4 h -1 z"
   id="path1396" />
		<path
   d="m 1244.9,811.2 v -8.6 h 1.1 v 7.6 h 4.2 v 1 z"
   id="path1398" />
		<path
   d="m 1255.6,810.4 c -0.4,0.3 -0.8,0.6 -1.1,0.7 -0.3,0.1 -0.7,0.2 -1.2,0.2 -0.7,0 -1.2,-0.2 -1.6,-0.5 -0.4,-0.3 -0.6,-0.8 -0.6,-1.3 0,-0.3 0.1,-0.6 0.2,-0.8 0.1,-0.2 0.3,-0.5 0.5,-0.6 0.2,-0.1 0.5,-0.3 0.8,-0.3 0.2,-0.1 0.5,-0.1 0.9,-0.2 0.9,-0.1 1.5,-0.2 1.9,-0.4 0,-0.1 0,-0.2 0,-0.3 0,-0.4 -0.1,-0.7 -0.3,-0.9 -0.3,-0.2 -0.7,-0.4 -1.2,-0.4 -0.5,0 -0.9,0.1 -1.1,0.3 -0.2,0.2 -0.4,0.5 -0.5,0.9 l -1,-0.1 c 0.1,-0.4 0.2,-0.8 0.5,-1.1 0.3,-0.3 0.5,-0.5 0.9,-0.6 0.4,-0.1 0.9,-0.2 1.4,-0.2 0.5,0 1,0.1 1.3,0.2 0.3,0.1 0.6,0.3 0.7,0.5 0.1,0.2 0.3,0.4 0.3,0.7 0,0.2 0.1,0.5 0.1,1 v 1.4 c 0,1 0,1.6 0.1,1.9 0.1,0.3 0.1,0.5 0.3,0.7 h -1.1 c -0.1,-0.2 -0.2,-0.5 -0.2,-0.8 z m -0.1,-2.3 c -0.4,0.2 -1,0.3 -1.7,0.4 -0.4,0.1 -0.7,0.1 -0.9,0.2 -0.2,0.1 -0.3,0.2 -0.4,0.3 -0.1,0.1 -0.1,0.3 -0.1,0.5 0,0.3 0.1,0.5 0.3,0.7 0.2,0.2 0.5,0.3 0.9,0.3 0.4,0 0.8,-0.1 1.1,-0.3 0.3,-0.2 0.5,-0.4 0.7,-0.7 0.1,-0.2 0.2,-0.6 0.2,-1.1 v -0.3 z"
   id="path1400" />
		<path
   d="m 1258.1,813.6 -0.1,-1 c 0.2,0.1 0.4,0.1 0.6,0.1 0.2,0 0.4,0 0.6,-0.1 0.2,-0.1 0.3,-0.2 0.3,-0.3 0.1,-0.1 0.2,-0.4 0.3,-0.8 0,-0.1 0.1,-0.1 0.1,-0.3 l -2.4,-6.2 h 1.1 l 1.3,3.6 c 0.2,0.5 0.3,0.9 0.5,1.4 0.1,-0.5 0.3,-1 0.4,-1.4 l 1.3,-3.6 h 1.1 l -2.4,6.3 c -0.3,0.7 -0.5,1.2 -0.6,1.4 -0.2,0.3 -0.4,0.6 -0.6,0.8 -0.2,0.2 -0.5,0.2 -0.9,0.2 -0.1,0 -0.3,0 -0.6,-0.1 z"
   id="path1402" />
		<path
   d="m 1268.4,809.2 1.1,0.1 c -0.2,0.6 -0.5,1.1 -1,1.5 -0.5,0.4 -1.1,0.5 -1.8,0.5 -0.9,0 -1.6,-0.3 -2.2,-0.8 -0.6,-0.5 -0.8,-1.3 -0.8,-2.4 0,-1 0.3,-1.9 0.8,-2.4 0.5,-0.5 1.2,-0.9 2.1,-0.9 0.8,0 1.5,0.3 2,0.8 0.5,0.5 0.8,1.4 0.8,2.4 0,0.1 0,0.2 0,0.3 h -4.6 c 0,0.7 0.2,1.2 0.6,1.6 0.4,0.4 0.8,0.5 1.3,0.5 0.4,0 0.7,-0.1 1,-0.3 0.3,-0.2 0.6,-0.5 0.7,-0.9 z m -3.4,-1.7 h 3.5 c 0,-0.5 -0.2,-0.9 -0.4,-1.2 -0.3,-0.4 -0.8,-0.6 -1.3,-0.6 -0.5,0 -0.9,0.2 -1.2,0.5 -0.3,0.3 -0.6,0.7 -0.6,1.3 z"
   id="path1404" />
		<path
   d="M 1270.8,811.2 V 805 h 0.9 v 0.9 c 0.2,-0.4 0.5,-0.7 0.7,-0.9 0.2,-0.2 0.4,-0.2 0.7,-0.2 0.4,0 0.7,0.1 1.1,0.3 l -0.4,1 c -0.3,-0.2 -0.5,-0.2 -0.8,-0.2 -0.2,0 -0.4,0.1 -0.6,0.2 -0.2,0.1 -0.3,0.3 -0.4,0.6 -0.1,0.4 -0.2,0.8 -0.2,1.2 v 3.3 z"
   id="path1406" />
		<path
   d="m 1277.4,802.8 h 6 v 8.4 h -6 z m 0.6,7.3 2,-3.1 -2,-3.1 z m 4.4,-6.7 h -4.1 l 2,3.1 z m 0,7.2 -2,-3.1 -2,3.1 z m 0.4,-0.5 V 804 l -2,3.1 z"
   id="path1408" />
		<path
   d="m 1286.7,802.8 h 6 v 8.4 h -6 z m 0.6,7.3 2,-3.1 -2,-3.1 z m 4.5,-6.7 h -4.1 l 2,3.1 z m 0,7.2 -2,-3.1 -2,3.1 z m 0.3,-0.5 V 804 l -2,3.1 z"
   id="path1410" />
		<path
   d="m 1293.9,804.6 c -0.5,-0.2 -0.8,-0.5 -0.8,-0.9 0,-0.7 0.5,-1.1 1.5,-1.1 0.4,0 0.8,0.1 1.1,0.2 0.4,0.2 0.5,0.5 0.5,0.9 0,0.4 -0.3,0.8 -0.8,0.9 0.7,0.2 1,0.5 1,1.1 0,0.4 -0.2,0.8 -0.6,1 -0.3,0.2 -0.7,0.3 -1.2,0.3 -0.5,0 -0.9,-0.1 -1.2,-0.3 -0.4,-0.2 -0.6,-0.6 -0.6,-1 0.2,-0.6 0.5,-1 1.1,-1.1 z m -0.1,1 c 0,0.5 0.3,0.7 0.9,0.7 0.2,0 0.4,-0.1 0.6,-0.2 0.2,-0.1 0.3,-0.3 0.3,-0.5 0,-0.2 -0.1,-0.4 -0.3,-0.6 -0.2,-0.1 -0.4,-0.2 -0.6,-0.2 -0.6,0.1 -0.9,0.3 -0.9,0.8 z m 0.2,-1.9 c 0,0.4 0.2,0.6 0.7,0.6 0.2,0 0.4,0 0.5,-0.1 0.2,-0.1 0.2,-0.3 0.2,-0.4 0,-0.2 -0.1,-0.3 -0.2,-0.5 -0.1,-0.1 -0.3,-0.1 -0.5,-0.1 -0.2,0 -0.3,0 -0.5,0.1 -0.1,0.1 -0.2,0.2 -0.2,0.4 z"
   id="path1412" />
	</g>
	<circle
   id="_x35__x5F_0"
   class="st1"
   cx="1378.7"
   cy="167"
   r="19" />
	<circle
   id="_x35__x5F_1"
   class="st1"
   cx="1378.7"
   cy="207"
   r="19" />
	<circle
   id="_x35__x5F_2"
   class="st1"
   cx="1378.7"
   cy="247"
   r="19" />
	<circle
   id="_x35__x5F_3"
   class="st1"
   cx="1378.7"
   cy="287"
   r="19" />
	<circle
   id="_x35__x5F_4"
   class="st1"
   cx="1378.7"
   cy="327"
   r="19" />
	<circle
   id="_x35__x5F_5"
   class="st1"
   cx="1378.7"
   cy="367"
   r="19" />
	<circle
   id="_x35__x5F_6"
   class="st1"
   cx="1378.7"
   cy="407"
   r="19" />
	<circle
   id="_x35__x5F_7"
   class="st1"
   cx="1378.7"
   cy="447"
   r="19" />
	<circle
   id="_x35__x5F_8"
   class="st1"
   cx="1378.7"
   cy="487"
   r="19" />
	<circle
   id="_x35__x5F_9"
   class="st1"
   cx="1378.7"
   cy="527"
   r="19" />
	<circle
   id="_x35__x5F_10"
   class="st1"
   cx="1378.7"
   cy="567"
   r="19" />
	<circle
   id="_x35__x5F_11"
   class="st1"
   cx="1378.7"
   cy="607"
   r="19" />
	<circle
   id="_x35__x5F_12"
   class="st1"
   cx="1378.7"
   cy="647"
   r="19" />
	<circle
   id="_x35__x5F_13"
   class="st1"
   cx="1378.7"
   cy="687"
   r="19" />
	<circle
   id="_x35__x5F_14"
   class="st1"
   cx="1378.7"
   cy="727"
   r="19" />
	<circle
   id="_x35__x5F_15"
   class="st1"
   cx="1378.7"
   cy="767"
   r="19" />
	<g
   class="st2"
   id="g1462">
		<path
   d="m 1344.6,811.2 v -8.6 h 1.1 v 3.5 h 4.5 v -3.5 h 1.1 v 8.6 h -1.1 v -4 h -4.5 v 4 z"
   id="path1432" />
		<path
   d="m 1353.1,803.8 v -1.2 h 1.1 v 1.2 z m 0,7.4 V 805 h 1.1 v 6.2 z"
   id="path1434" />
		<path
   d="m 1359.8,811.2 v -0.8 c -0.4,0.6 -1,0.9 -1.7,0.9 -0.5,0 -1,-0.1 -1.4,-0.4 -0.4,-0.3 -0.7,-0.7 -1,-1.1 -0.3,-0.4 -0.3,-1.1 -0.3,-1.7 0,-0.6 0.1,-1.2 0.3,-1.7 0.2,-0.5 0.5,-0.9 0.9,-1.2 0.4,-0.3 0.9,-0.4 1.4,-0.4 0.4,0 0.7,0.1 1,0.2 0.3,0.1 0.5,0.4 0.7,0.6 v -3.1 h 1 v 8.6 h -0.9 z m -3.3,-3.1 c 0,0.8 0.2,1.4 0.5,1.8 0.3,0.4 0.7,0.6 1.2,0.6 0.5,0 0.9,-0.2 1.2,-0.6 0.3,-0.4 0.5,-1 0.5,-1.7 0,-0.9 -0.2,-1.5 -0.5,-1.9 -0.3,-0.4 -0.7,-0.6 -1.2,-0.6 -0.5,0 -0.9,0.2 -1.2,0.6 -0.3,0.4 -0.5,1 -0.5,1.8 z"
   id="path1436" />
		<path
   d="m 1366.5,811.2 v -0.8 c -0.4,0.6 -1,0.9 -1.7,0.9 -0.5,0 -1,-0.1 -1.4,-0.4 -0.4,-0.3 -0.7,-0.7 -1,-1.1 -0.3,-0.4 -0.3,-1.1 -0.3,-1.7 0,-0.6 0.1,-1.2 0.3,-1.7 0.2,-0.5 0.5,-0.9 0.9,-1.2 0.4,-0.3 0.9,-0.4 1.4,-0.4 0.4,0 0.7,0.1 1,0.2 0.3,0.1 0.5,0.4 0.7,0.6 v -3.1 h 1 v 8.6 h -0.9 z m -3.3,-3.1 c 0,0.8 0.2,1.4 0.5,1.8 0.3,0.4 0.7,0.6 1.2,0.6 0.5,0 0.9,-0.2 1.2,-0.6 0.3,-0.4 0.5,-1 0.5,-1.7 0,-0.9 -0.2,-1.5 -0.5,-1.9 -0.3,-0.4 -0.7,-0.6 -1.2,-0.6 -0.5,0 -0.9,0.2 -1.2,0.6 -0.3,0.4 -0.5,1 -0.5,1.8 z"
   id="path1438" />
		<path
   d="m 1373.4,809.2 1.1,0.1 c -0.2,0.6 -0.5,1.1 -1,1.5 -0.5,0.4 -1.1,0.5 -1.8,0.5 -0.9,0 -1.6,-0.3 -2.2,-0.8 -0.6,-0.5 -0.8,-1.3 -0.8,-2.4 0,-1 0.3,-1.9 0.8,-2.4 0.5,-0.5 1.2,-0.9 2.1,-0.9 0.8,0 1.5,0.3 2,0.8 0.5,0.5 0.8,1.4 0.8,2.4 0,0.1 0,0.2 0,0.3 h -4.6 c 0,0.7 0.2,1.2 0.6,1.6 0.4,0.4 0.8,0.5 1.3,0.5 0.4,0 0.7,-0.1 1,-0.3 0.3,-0.2 0.5,-0.5 0.7,-0.9 z m -3.5,-1.7 h 3.5 c 0,-0.5 -0.2,-0.9 -0.4,-1.2 -0.3,-0.4 -0.8,-0.6 -1.3,-0.6 -0.5,0 -0.9,0.2 -1.2,0.5 -0.3,0.3 -0.5,0.7 -0.6,1.3 z"
   id="path1440" />
		<path
   d="M 1375.8,811.2 V 805 h 0.9 v 0.9 c 0.5,-0.7 1.1,-1 2,-1 0.4,0 0.7,0.1 1,0.2 0.3,0.1 0.5,0.3 0.7,0.5 0.2,0.2 0.3,0.5 0.3,0.8 0,0.2 0.1,0.5 0.1,1 v 3.8 h -1.1 v -3.8 c 0,-0.4 0,-0.8 -0.1,-1 -0.1,-0.2 -0.2,-0.4 -0.4,-0.5 -0.2,-0.1 -0.5,-0.2 -0.7,-0.2 -0.4,0 -0.8,0.1 -1.2,0.4 -0.4,0.3 -0.5,0.8 -0.5,1.6 v 3.4 h -1 z"
   id="path1442" />
		<path
   d="m 1385.9,811.2 v -8.6 h 1.1 v 7.6 h 4.2 v 1 z"
   id="path1444" />
		<path
   d="m 1396.6,810.4 c -0.4,0.3 -0.8,0.6 -1.1,0.7 -0.3,0.1 -0.7,0.2 -1.2,0.2 -0.7,0 -1.2,-0.2 -1.6,-0.5 -0.4,-0.3 -0.6,-0.8 -0.6,-1.3 0,-0.3 0.1,-0.6 0.2,-0.8 0.1,-0.2 0.3,-0.5 0.5,-0.6 0.2,-0.1 0.5,-0.3 0.8,-0.3 0.2,-0.1 0.5,-0.1 0.9,-0.2 0.9,-0.1 1.5,-0.2 1.9,-0.4 0,-0.1 0,-0.2 0,-0.3 0,-0.4 -0.1,-0.7 -0.3,-0.9 -0.3,-0.2 -0.7,-0.4 -1.2,-0.4 -0.5,0 -0.9,0.1 -1.1,0.3 -0.2,0.2 -0.4,0.5 -0.5,0.9 l -1,-0.1 c 0.1,-0.4 0.2,-0.8 0.5,-1.1 0.3,-0.3 0.5,-0.5 0.9,-0.6 0.4,-0.1 0.9,-0.2 1.4,-0.2 0.5,0 1,0.1 1.3,0.2 0.3,0.1 0.6,0.3 0.7,0.5 0.1,0.2 0.3,0.4 0.3,0.7 0,0.2 0.1,0.5 0.1,1 v 1.4 c 0,1 0,1.6 0.1,1.9 0.1,0.3 0.1,0.5 0.3,0.7 h -1.1 c -0.1,-0.2 -0.2,-0.5 -0.2,-0.8 z m -0.1,-2.3 c -0.4,0.2 -1,0.3 -1.7,0.4 -0.4,0.1 -0.7,0.1 -0.9,0.2 -0.2,0.1 -0.3,0.2 -0.4,0.3 -0.1,0.1 -0.1,0.3 -0.1,0.5 0,0.3 0.1,0.5 0.3,0.7 0.2,0.2 0.5,0.3 0.9,0.3 0.4,0 0.8,-0.1 1.1,-0.3 0.3,-0.2 0.5,-0.4 0.7,-0.7 0.1,-0.2 0.2,-0.6 0.2,-1.1 v -0.3 z"
   id="path1446" />
		<path
   d="m 1399.1,813.6 -0.1,-1 c 0.2,0.1 0.4,0.1 0.6,0.1 0.2,0 0.4,0 0.6,-0.1 0.2,-0.1 0.3,-0.2 0.3,-0.3 0.1,-0.1 0.2,-0.4 0.3,-0.8 0,-0.1 0.1,-0.1 0.1,-0.3 l -2.4,-6.2 h 1.1 l 1.3,3.6 c 0.2,0.5 0.3,0.9 0.5,1.4 0.1,-0.5 0.3,-1 0.4,-1.4 l 1.3,-3.6 h 1.1 l -2.4,6.3 c -0.3,0.7 -0.5,1.2 -0.6,1.4 -0.2,0.3 -0.4,0.6 -0.6,0.8 -0.2,0.2 -0.5,0.2 -0.9,0.2 -0.1,0 -0.3,0 -0.6,-0.1 z"
   id="path1448" />
		<path
   d="m 1409.4,809.2 1.1,0.1 c -0.2,0.6 -0.5,1.1 -1,1.5 -0.5,0.4 -1.1,0.5 -1.8,0.5 -0.9,0 -1.6,-0.3 -2.2,-0.8 -0.6,-0.5 -0.8,-1.3 -0.8,-2.4 0,-1 0.3,-1.9 0.8,-2.4 0.5,-0.5 1.2,-0.9 2.1,-0.9 0.8,0 1.5,0.3 2,0.8 0.5,0.5 0.8,1.4 0.8,2.4 0,0.1 0,0.2 0,0.3 h -4.6 c 0,0.7 0.2,1.2 0.6,1.6 0.4,0.4 0.8,0.5 1.3,0.5 0.4,0 0.7,-0.1 1,-0.3 0.3,-0.2 0.6,-0.5 0.7,-0.9 z m -3.4,-1.7 h 3.5 c 0,-0.5 -0.2,-0.9 -0.4,-1.2 -0.3,-0.4 -0.8,-0.6 -1.3,-0.6 -0.5,0 -0.9,0.2 -1.2,0.5 -0.3,0.3 -0.6,0.7 -0.6,1.3 z"
   id="path1450" />
		<path
   d="M 1411.8,811.2 V 805 h 0.9 v 0.9 c 0.2,-0.4 0.5,-0.7 0.7,-0.9 0.2,-0.2 0.4,-0.2 0.7,-0.2 0.4,0 0.7,0.1 1.1,0.3 l -0.4,1 c -0.3,-0.2 -0.5,-0.2 -0.8,-0.2 -0.2,0 -0.4,0.1 -0.6,0.2 -0.2,0.1 -0.3,0.3 -0.4,0.6 -0.1,0.4 -0.2,0.8 -0.2,1.2 v 3.3 z"
   id="path1452" />
		<path
   d="m 1418.4,802.8 h 6 v 8.4 h -6 z m 0.6,7.3 2,-3.1 -2,-3.1 z m 4.4,-6.7 h -4.1 l 2,3.1 z m 0,7.2 -2,-3.1 -2,3.1 z m 0.4,-0.5 V 804 l -2,3.1 z"
   id="path1454" />
		<path
   d="m 1427.7,802.8 h 6 v 8.4 h -6 z m 0.6,7.3 2,-3.1 -2,-3.1 z m 4.5,-6.7 h -4.1 l 2,3.1 z m 0,7.2 -2,-3.1 -2,3.1 z m 0.3,-0.5 V 804 l -2,3.1 z"
   id="path1456" />
		<path
   d="m 1435.7,806.9 v -3.2 c -0.4,0.3 -0.8,0.5 -1.3,0.7 v -0.7 c 0.2,-0.1 0.5,-0.2 0.8,-0.4 0.3,-0.2 0.5,-0.4 0.7,-0.7 h 0.6 v 4.4 h -0.8 z"
   id="path1458" />
		<path
   d="m 1441.4,803.6 h -0.9 c -0.1,-0.3 -0.3,-0.5 -0.7,-0.5 -0.6,0 -0.9,0.4 -0.9,1.3 0.2,-0.3 0.5,-0.4 1,-0.4 0.5,0 0.8,0.1 1.1,0.4 0.3,0.3 0.5,0.6 0.5,1.1 0,0.5 -0.2,0.8 -0.5,1.1 -0.3,0.3 -0.7,0.4 -1.2,0.4 -1.2,0 -1.8,-0.7 -1.8,-2.1 0,-1.6 0.6,-2.4 1.9,-2.4 0.4,0 0.8,0.1 1.1,0.4 0.2,0.2 0.3,0.4 0.4,0.7 z m -2.4,1.9 c 0,0.5 0.3,0.8 0.8,0.8 0.2,0 0.4,-0.1 0.6,-0.2 0.2,-0.1 0.2,-0.3 0.2,-0.6 0,-0.5 -0.3,-0.8 -0.8,-0.8 -0.6,0.1 -0.8,0.3 -0.8,0.8 z"
   id="path1460" />
	</g>
	<circle
   id="_x36__x5F_0"
   class="st1"
   cx="1519.7"
   cy="287"
   r="19" />
	<circle
   id="_x36__x5F_1"
   class="st1"
   cx="1519.7"
   cy="327"
   r="19" />
	<circle
   id="_x36__x5F_2"
   class="st1"
   cx="1519.7"
   cy="367"
   r="19" />
	<circle
   id="_x36__x5F_3"
   class="st1"
   cx="1519.7"
   cy="407"
   r="19" />
	<circle
   id="_x36__x5F_4"
   class="st1"
   cx="1519.7"
   cy="447"
   r="19" />
	<circle
   id="_x36__x5F_5"
   class="st1"
   cx="1519.7"
   cy="487"
   r="19" />
	<circle
   id="_x36__x5F_6"
   class="st1"
   cx="1519.7"
   cy="527"
   r="19" />
	<circle
   id="_x36__x5F_7"
   class="st1"
   cx="1519.7"
   cy="567"
   r="19" />
	<circle
   id="_x36__x5F_8"
   class="st1"
   cx="1519.7"
   cy="607"
   r="19" />
	<circle
   id="_x36__x5F_9"
   class="st1"
   cx="1519.7"
   cy="647"
   r="19" />
	<g
   class="st2"
   id="g1504">
		<path
   d="m 1485.2,807 c 0,-1.4 0.4,-2.5 1.1,-3.3 0.7,-0.8 1.8,-1.2 3,-1.2 0.8,0 1.5,0.2 2.1,0.6 0.6,0.4 1.1,0.9 1.5,1.6 0.4,0.7 0.5,1.4 0.5,2.3 0,0.9 -0.2,1.7 -0.5,2.3 -0.3,0.6 -0.8,1.2 -1.5,1.6 -0.7,0.4 -1.3,0.5 -2.1,0.5 -0.8,0 -1.5,-0.2 -2.2,-0.6 -0.7,-0.4 -1.1,-0.9 -1.4,-1.6 -0.3,-0.7 -0.5,-1.4 -0.5,-2.2 z m 1.2,0 c 0,1 0.3,1.9 0.8,2.4 0.5,0.5 1.3,0.9 2.1,0.9 0.9,0 1.6,-0.3 2.1,-0.9 0.5,-0.6 0.8,-1.5 0.8,-2.6 0,-0.7 -0.1,-1.3 -0.4,-1.8 -0.3,-0.5 -0.6,-0.9 -1,-1.2 -0.4,-0.3 -1,-0.4 -1.5,-0.4 -0.8,0 -1.5,0.3 -2.1,0.8 -0.6,0.5 -0.8,1.5 -0.8,2.8 z"
   id="path1474" />
		<path
   d="m 1498.9,811.2 v -0.9 c -0.5,0.7 -1.1,1.1 -2,1.1 -0.4,0 -0.7,-0.1 -1,-0.2 -0.3,-0.1 -0.6,-0.3 -0.7,-0.5 -0.1,-0.2 -0.3,-0.5 -0.3,-0.8 0,-0.2 -0.1,-0.5 -0.1,-1 V 805 h 1.1 v 3.5 c 0,0.6 0,0.9 0.1,1.1 0.1,0.3 0.2,0.5 0.4,0.7 0.2,0.2 0.5,0.2 0.8,0.2 0.3,0 0.6,-0.1 0.9,-0.2 0.3,-0.1 0.5,-0.4 0.6,-0.7 0.1,-0.3 0.2,-0.7 0.2,-1.2 V 805 h 1.1 v 6.2 z"
   id="path1476" />
		<path
   d="m 1503.8,810.3 0.2,0.9 c -0.3,0.1 -0.6,0.1 -0.8,0.1 -0.4,0 -0.7,-0.1 -0.9,-0.2 -0.2,-0.1 -0.4,-0.3 -0.4,-0.5 0,-0.2 -0.1,-0.6 -0.1,-1.2 v -3.6 H 1501 V 805 h 0.8 v -1.5 l 1,-0.6 v 2.2 h 1.1 v 0.8 h -1.1 v 3.6 c 0,0.3 0,0.5 0.1,0.6 0.1,0.1 0.1,0.2 0.2,0.2 0.1,0 0.2,0.1 0.4,0.1 -0.1,-0.1 0.1,-0.1 0.3,-0.1 z"
   id="path1478" />
		<path
   d="M 1504.8,813.6 V 805 h 1 v 0.8 c 0.2,-0.3 0.5,-0.6 0.8,-0.7 0.3,-0.1 0.6,-0.2 1,-0.2 0.5,0 1,0.1 1.4,0.4 0.4,0.3 0.7,0.7 0.9,1.2 0.2,0.5 0.3,1 0.3,1.6 0,0.6 -0.1,1.2 -0.3,1.7 -0.2,0.5 -0.6,0.9 -1,1.2 -0.4,0.3 -0.9,0.4 -1.4,0.4 -0.4,0 -0.7,-0.1 -0.9,-0.2 -0.2,-0.1 -0.5,-0.3 -0.7,-0.6 v 3 z m 1,-5.5 c 0,0.8 0.2,1.4 0.5,1.8 0.3,0.4 0.7,0.6 1.2,0.6 0.5,0 0.9,-0.2 1.2,-0.6 0.3,-0.4 0.5,-1 0.5,-1.8 0,-0.8 -0.2,-1.4 -0.5,-1.8 -0.3,-0.4 -0.7,-0.6 -1.2,-0.6 -0.4,0 -0.8,0.2 -1.2,0.6 -0.4,0.4 -0.5,1 -0.5,1.8 z"
   id="path1480" />
		<path
   d="m 1515.6,811.2 v -0.9 c -0.5,0.7 -1.1,1.1 -2,1.1 -0.4,0 -0.7,-0.1 -1,-0.2 -0.3,-0.1 -0.6,-0.3 -0.7,-0.5 -0.1,-0.2 -0.3,-0.5 -0.3,-0.8 0,-0.2 -0.1,-0.5 -0.1,-1 V 805 h 1.1 v 3.5 c 0,0.6 0,0.9 0.1,1.1 0.1,0.3 0.2,0.5 0.4,0.7 0.2,0.2 0.5,0.2 0.8,0.2 0.3,0 0.6,-0.1 0.9,-0.2 0.3,-0.1 0.5,-0.4 0.6,-0.7 0.1,-0.3 0.2,-0.7 0.2,-1.2 V 805 h 1.1 v 6.2 z"
   id="path1482" />
		<path
   d="m 1520.5,810.3 0.2,0.9 c -0.3,0.1 -0.6,0.1 -0.8,0.1 -0.4,0 -0.7,-0.1 -0.9,-0.2 -0.2,-0.1 -0.4,-0.3 -0.4,-0.5 0,-0.2 -0.1,-0.6 -0.1,-1.2 v -3.6 h -0.8 V 805 h 0.8 v -1.5 l 1,-0.6 v 2.2 h 1.1 v 0.8 h -1.1 v 3.6 c 0,0.3 0,0.5 0.1,0.6 0.1,0.1 0.1,0.2 0.2,0.2 0.1,0 0.2,0.1 0.4,0.1 -0.1,-0.1 0.1,-0.1 0.3,-0.1 z"
   id="path1484" />
		<path
   d="m 1524.9,811.2 v -8.6 h 1.1 v 7.6 h 4.2 v 1 z"
   id="path1486" />
		<path
   d="m 1535.5,810.4 c -0.4,0.3 -0.8,0.6 -1.1,0.7 -0.3,0.1 -0.7,0.2 -1.2,0.2 -0.7,0 -1.2,-0.2 -1.6,-0.5 -0.4,-0.3 -0.6,-0.8 -0.6,-1.3 0,-0.3 0.1,-0.6 0.2,-0.8 0.1,-0.2 0.3,-0.5 0.5,-0.6 0.2,-0.1 0.5,-0.3 0.8,-0.3 0.2,-0.1 0.5,-0.1 0.9,-0.2 0.9,-0.1 1.5,-0.2 1.9,-0.4 0,-0.1 0,-0.2 0,-0.3 0,-0.4 -0.1,-0.7 -0.3,-0.9 -0.3,-0.2 -0.7,-0.4 -1.2,-0.4 -0.5,0 -0.9,0.1 -1.1,0.3 -0.2,0.2 -0.4,0.5 -0.5,0.9 l -1,-0.1 c 0.1,-0.4 0.2,-0.8 0.5,-1.1 0.3,-0.3 0.5,-0.5 0.9,-0.6 0.4,-0.1 0.9,-0.2 1.4,-0.2 0.5,0 1,0.1 1.3,0.2 0.3,0.1 0.6,0.3 0.7,0.5 0.1,0.2 0.3,0.4 0.3,0.7 0,0.2 0.1,0.5 0.1,1 v 1.4 c 0,1 0,1.6 0.1,1.9 0.1,0.3 0.1,0.5 0.3,0.7 h -1.1 c 0,-0.2 -0.1,-0.5 -0.2,-0.8 z m 0,-2.3 c -0.4,0.2 -1,0.3 -1.7,0.4 -0.4,0.1 -0.7,0.1 -0.9,0.2 -0.2,0.1 -0.3,0.2 -0.4,0.3 -0.1,0.1 -0.1,0.3 -0.1,0.5 0,0.3 0.1,0.5 0.3,0.7 0.2,0.2 0.5,0.3 0.9,0.3 0.4,0 0.8,-0.1 1.1,-0.3 0.3,-0.2 0.5,-0.4 0.7,-0.7 0.1,-0.2 0.2,-0.6 0.2,-1.1 v -0.3 z"
   id="path1488" />
		<path
   d="m 1538.1,813.6 -0.1,-1 c 0.2,0.1 0.4,0.1 0.6,0.1 0.2,0 0.4,0 0.6,-0.1 0.2,-0.1 0.3,-0.2 0.3,-0.3 0.1,-0.1 0.2,-0.4 0.3,-0.8 0,-0.1 0.1,-0.1 0.1,-0.3 l -2.4,-6.2 h 1.1 l 1.3,3.6 c 0.2,0.5 0.3,0.9 0.5,1.4 0.1,-0.5 0.3,-1 0.4,-1.4 l 1.3,-3.6 h 1.1 l -2.4,6.3 c -0.3,0.7 -0.5,1.2 -0.6,1.4 -0.2,0.3 -0.4,0.6 -0.6,0.8 -0.2,0.2 -0.5,0.2 -0.9,0.2 -0.1,0 -0.3,0 -0.6,-0.1 z"
   id="path1490" />
		<path
   d="m 1548.4,809.2 1.1,0.1 c -0.2,0.6 -0.5,1.1 -1,1.5 -0.5,0.4 -1.1,0.5 -1.8,0.5 -0.9,0 -1.6,-0.3 -2.2,-0.8 -0.6,-0.5 -0.8,-1.3 -0.8,-2.4 0,-1 0.3,-1.9 0.8,-2.4 0.5,-0.5 1.2,-0.9 2.1,-0.9 0.8,0 1.5,0.3 2,0.8 0.5,0.5 0.8,1.4 0.8,2.4 0,0.1 0,0.2 0,0.3 h -4.6 c 0,0.7 0.2,1.2 0.6,1.6 0.4,0.4 0.8,0.5 1.3,0.5 0.4,0 0.7,-0.1 1,-0.3 0.3,-0.2 0.6,-0.5 0.7,-0.9 z m -3.4,-1.7 h 3.5 c 0,-0.5 -0.2,-0.9 -0.4,-1.2 -0.3,-0.4 -0.8,-0.6 -1.3,-0.6 -0.5,0 -0.9,0.2 -1.2,0.5 -0.3,0.3 -0.6,0.7 -0.6,1.3 z"
   id="path1492" />
		<path
   d="M 1550.8,811.2 V 805 h 0.9 v 0.9 c 0.2,-0.4 0.5,-0.7 0.7,-0.9 0.2,-0.2 0.4,-0.2 0.7,-0.2 0.4,0 0.7,0.1 1.1,0.3 l -0.4,1 c -0.3,-0.2 -0.5,-0.2 -0.8,-0.2 -0.2,0 -0.4,0.1 -0.6,0.2 -0.2,0.1 -0.3,0.3 -0.4,0.6 -0.1,0.4 -0.2,0.8 -0.2,1.2 v 3.3 z"
   id="path1494" />
		<path
   d="m 1557.4,802.8 h 6 v 8.4 h -6 z m 0.6,7.3 2,-3.1 -2,-3.1 z m 4.4,-6.7 h -4.1 l 2,3.1 z m 0,7.2 -2,-3.1 -2,3.1 z m 0.4,-0.5 V 804 l -2,3.1 z"
   id="path1496" />
		<path
   d="m 1566.7,802.8 h 6 v 8.4 h -6 z m 0.6,7.3 2,-3.1 -2,-3.1 z m 4.4,-6.7 h -4.1 l 2,3.1 z m 0,7.2 -2,-3.1 -2,3.1 z m 0.4,-0.5 V 804 l -2,3.1 z"
   id="path1498" />
		<path
   d="m 1574.6,806.9 v -3.2 c -0.4,0.3 -0.8,0.5 -1.3,0.7 v -0.7 c 0.2,-0.1 0.5,-0.2 0.8,-0.4 0.3,-0.2 0.5,-0.4 0.7,-0.7 h 0.6 v 4.4 h -0.8 z"
   id="path1500" />
		<path
   d="m 1580.5,804.7 c 0,0.7 -0.1,1.2 -0.4,1.6 -0.3,0.4 -0.8,0.6 -1.4,0.6 -1.2,0 -1.8,-0.8 -1.8,-2.3 0,-0.7 0.1,-1.2 0.4,-1.6 0.3,-0.4 0.8,-0.6 1.4,-0.6 1.2,0.1 1.8,0.8 1.8,2.3 z m -0.9,0 c 0,-0.5 0,-0.8 -0.1,-1 -0.1,-0.4 -0.4,-0.6 -0.8,-0.6 -0.4,0 -0.6,0.2 -0.8,0.6 -0.1,0.2 -0.1,0.6 -0.1,1 0,0.4 0,0.8 0.1,1 0.1,0.4 0.4,0.6 0.8,0.6 0.4,0 0.6,-0.2 0.8,-0.6 0,-0.2 0.1,-0.5 0.1,-1 z"
   id="path1502" />
	</g>
</g>
<polygon
   class="st3"
   points="783,867.9 1130.2,506 1130.2,426 744.2,34.9 638.7,34.9 638.7,867.9 "
   id="polygon1508"
   transform="translate(-382.7,-25.5)" />
<g
   id="g1524"
   transform="translate(-382.7,-25.5)">
	<path
   d="m 415.4,342.8 c -0.4,2.3 -1.6,7.9 -2.2,9.8 h -30.5 v -1.7 c 5.6,-0.4 6.1,-1 6.1,-6 v -23.8 c 0,-5.6 -0.5,-5.7 -5.4,-6.1 v -1.8 h 28.1 c 0.1,1.6 0.3,5.6 0.6,9 l -1.9,0.2 c -0.6,-2.5 -1.2,-3.9 -2,-5.3 -0.9,-1.3 -2.6,-1.7 -6.9,-1.7 h -4.6 c -2,0 -2.2,0.2 -2.2,2 V 331 h 5.7 c 5.6,0 6,-0.5 6.8,-4.6 h 1.9 v 11.9 H 407 c -0.9,-4.4 -1.3,-4.8 -6.8,-4.8 h -5.7 v 11.2 c 0,2.9 0.3,4.2 1.5,5 1.2,0.7 3.5,0.7 6.4,0.7 4.5,0 6.4,-0.4 7.8,-2 1.1,-1.3 2.2,-3.4 3.2,-5.9 z"
   id="path1510" />
	<path
   d="M 436.2,352.6 V 351 c 3.5,-0.4 3.9,-0.9 3.9,-5.1 V 336 c 0,-4.2 -1.7,-6.8 -5.5,-6.8 -2.3,0 -4.6,1.5 -6.5,3 v 14 c 0,4.2 0.3,4.4 3.9,4.8 v 1.6 H 418.3 V 351 c 4.1,-0.5 4.4,-0.8 4.4,-4.9 v -12.2 c 0,-3.9 -0.4,-4.2 -3.7,-4.8 v -1.5 c 2.9,-0.5 6.1,-1.2 9,-2.4 v 4.9 c 1.2,-0.9 2.6,-1.9 4.2,-2.9 1.7,-1.1 3.3,-1.8 5.1,-1.8 4.9,0 8,3.4 8,9.5 v 11.3 c 0,4.2 0.4,4.3 3.9,4.8 v 1.6 z"
   id="path1512" />
	<path
   d="m 476.3,347 c -2.8,3.6 -7,6.3 -10.6,6.3 -8.1,0 -12.7,-6.2 -12.7,-12.7 0,-4.6 2.1,-8.7 6.3,-11.8 3.4,-2.5 7.1,-3.4 9.5,-3.4 h 0.1 c 2.5,0 4.6,0.7 5.6,1.6 0.8,0.7 1,1.2 1,1.9 0,1.4 -1.4,2.8 -2.2,2.8 -0.4,0 -0.7,-0.2 -1.2,-0.7 -2,-1.8 -4.1,-2.6 -6.3,-2.6 -3.8,0 -7.3,3.1 -7.3,9.5 0,8.3 6.1,11 9.4,11 2.6,0 4.6,-0.7 7.4,-3.3 z"
   id="path1514" />
	<path
   d="m 493.3,325.4 c 7.9,0 13.7,6.1 13.7,13.4 0,9.8 -7.5,14.4 -13.7,14.4 -8.8,0 -14,-6.6 -14,-13.3 -0.1,-9.8 8.1,-14.5 14,-14.5 z m -0.8,2 c -3.6,0 -6.9,3.6 -6.9,10.5 0,7.7 3.3,13.3 8.3,13.3 3.6,0 6.8,-2.4 6.8,-10.9 0,-7.3 -3,-12.9 -8.2,-12.9 z"
   id="path1516" />
	<path
   d="m 541.6,351 c -1.3,0.2 -6.1,1 -10,2.3 v -3.9 l -3.7,2.2 c -2.4,1.4 -4.1,1.7 -4.7,1.7 -5.1,0 -11.7,-4.4 -11.7,-12.9 0,-8.4 7.6,-15 16.1,-15 0.9,0 2.5,0.2 4,0.7 v -8.5 c 0,-3.9 -0.4,-4.1 -4.8,-4.4 v -1.6 c 3.4,-0.4 7.7,-1.3 10.1,-2.1 v 36 c 0,3.3 0.5,3.6 2.9,3.9 l 1.7,0.2 v 1.4 z m -10.1,-20.1 c -1.5,-2.1 -3.9,-3.2 -6.3,-3.2 -2.6,0 -7.8,2.2 -7.8,11 0,7.3 4.6,10.6 8.4,10.6 2,0 4.1,-0.9 5.6,-1.9 v -16.5 z"
   id="path1518" />
	<path
   d="m 566.9,347.2 c -4,5 -8.4,6.1 -10.4,6.1 -7.6,0 -12.1,-6.1 -12.1,-12.9 0,-4 1.5,-7.7 3.9,-10.4 2.7,-2.9 6,-4.6 9.3,-4.6 v 0 c 5.3,0 9.5,4.5 9.5,9.3 0,1.2 -0.3,1.7 -1.5,2 -1.1,0.2 -8.8,0.8 -16,1 0.1,7.8 4.7,11.2 9,11.2 2.5,0 4.9,-1 7.1,-3 z m -10.7,-19.5 c -2.7,0 -5.3,2.4 -6.2,7.4 3.3,0 6.6,0 10,-0.1 1.1,0 1.5,-0.4 1.5,-1.2 0,-3.2 -2,-6.1 -5.3,-6.1 z"
   id="path1520" />
	<path
   d="m 580.4,332 c 2,-3.3 4.6,-6.6 7.4,-6.6 2.2,0 3.7,1.6 3.7,3.1 0,1.4 -0.8,2.7 -2.2,3.3 -0.7,0.3 -1.3,0.2 -1.7,-0.2 -1,-0.9 -1.7,-1.2 -2.7,-1.2 -1.6,0 -3.4,1.8 -4.8,5 v 10.8 c 0,4 0.3,4.4 5.1,4.7 v 1.6 H 570.5 V 351 c 3.7,-0.4 4.3,-0.7 4.3,-4.7 v -12.6 c 0,-3.9 -0.3,-4.1 -3.8,-4.6 v -1.4 c 3.1,-0.5 6,-1.2 9.1,-2.5 v 6.8 z"
   id="path1522" />
</g>
<polygon
   class="st4"
   points="1409.6,863.5 1062.4,501.6 1062.4,421.6 1448.4,30.5 1553.9,30.5 1553.9,863.5 "
   id="polygon1526"
   transform="translate(-382.7,-25.5)" />
<g
   id="g1542"
   transform="translate(-382.7,-25.5)">
	<path
   class="st5"
   d="m 1609.3,409.5 c 7.9,0 14,1.6 17.8,5.2 3.1,2.9 5.3,7.4 5.3,13.1 0,7.2 -2.9,12.6 -7.8,16.2 -4.8,3.4 -11.1,5 -18.8,5 h -15.4 v -1.7 c 5.3,-0.4 5.9,-0.7 5.9,-5.9 v -24.1 c 0,-5.2 -0.5,-5.5 -5.3,-5.9 v -1.9 z m -7.2,31.3 c 0,4.8 2.1,5.9 6.7,5.9 11.6,0 17.1,-8.4 17.1,-18 0,-6.3 -2.4,-11.4 -7,-14.3 -2.9,-1.9 -6.6,-2.8 -11,-2.8 -2.8,0 -4.3,0.4 -5,0.8 -0.6,0.4 -0.8,1.2 -0.8,3.5 z"
   id="path1528" />
	<path
   class="st5"
   d="m 1660,443.6 c -4,5 -8.4,6.1 -10.4,6.1 -7.6,0 -12.1,-6.1 -12.1,-12.9 0,-4 1.5,-7.7 3.9,-10.4 2.7,-2.9 6,-4.6 9.3,-4.6 v 0 c 5.3,0 9.5,4.5 9.5,9.3 0,1.2 -0.3,1.7 -1.5,2 -1.1,0.2 -8.8,0.8 -16,1 0.1,7.8 4.7,11.2 9,11.2 2.5,0 4.9,-1 7.1,-3 z m -10.7,-19.5 c -2.7,0 -5.3,2.4 -6.2,7.4 3.3,0 6.6,0 10,-0.1 1.1,0 1.5,-0.4 1.5,-1.2 0,-3.2 -2,-6.1 -5.3,-6.1 z"
   id="path1530" />
	<path
   class="st5"
   d="m 1687.3,443.4 c -2.8,3.6 -7,6.3 -10.6,6.3 -8.1,0 -12.7,-6.2 -12.7,-12.7 0,-4.6 2.1,-8.7 6.3,-11.8 3.4,-2.5 7.1,-3.4 9.5,-3.4 h 0.1 c 2.5,0 4.6,0.7 5.6,1.6 0.8,0.7 1,1.2 1,1.9 0,1.4 -1.4,2.8 -2.2,2.8 -0.4,0 -0.7,-0.2 -1.2,-0.7 -2,-1.8 -4.1,-2.6 -6.3,-2.6 -3.8,0 -7.3,3.1 -7.3,9.5 0,8.3 6.1,11 9.4,11 2.6,0 4.6,-0.7 7.4,-3.3 z"
   id="path1532" />
	<path
   class="st5"
   d="m 1704.3,421.8 c 7.9,0 13.7,6.1 13.7,13.4 0,9.8 -7.5,14.4 -13.7,14.4 -8.8,0 -14,-6.6 -14,-13.3 -0.1,-9.8 8.1,-14.5 14,-14.5 z m -0.8,2 c -3.6,0 -6.9,3.6 -6.9,10.5 0,7.7 3.3,13.3 8.3,13.3 3.6,0 6.8,-2.4 6.8,-10.9 0,-7.3 -3,-12.9 -8.2,-12.9 z"
   id="path1534" />
	<path
   class="st5"
   d="m 1752.6,447.4 c -1.3,0.2 -6.1,1 -10,2.3 v -3.9 l -3.7,2.2 c -2.4,1.4 -4.1,1.7 -4.7,1.7 -5.1,0 -11.7,-4.4 -11.7,-12.9 0,-8.4 7.6,-15 16.1,-15 0.9,0 2.5,0.2 4,0.7 V 414 c 0,-3.9 -0.4,-4.1 -4.8,-4.4 V 408 c 3.4,-0.4 7.7,-1.3 10.1,-2.1 v 36 c 0,3.3 0.5,3.6 2.9,3.9 l 1.7,0.2 v 1.4 z m -10.1,-20.1 c -1.5,-2.1 -3.9,-3.2 -6.3,-3.2 -2.6,0 -7.8,2.2 -7.8,11 0,7.3 4.6,10.6 8.4,10.6 2,0 4.1,-0.9 5.6,-1.9 v -16.5 z"
   id="path1536" />
	<path
   class="st5"
   d="m 1777.9,443.6 c -4,5 -8.4,6.1 -10.4,6.1 -7.6,0 -12.1,-6.1 -12.1,-12.9 0,-4 1.5,-7.7 3.9,-10.4 2.7,-2.9 6,-4.6 9.3,-4.6 v 0 c 5.3,0 9.5,4.5 9.5,9.3 0,1.2 -0.3,1.7 -1.5,2 -1.1,0.2 -8.8,0.8 -16,1 0.1,7.8 4.7,11.2 9,11.2 2.5,0 4.9,-1 7.1,-3 z m -10.7,-19.5 c -2.7,0 -5.3,2.4 -6.2,7.4 3.3,0 6.6,0 10,-0.1 1.1,0 1.5,-0.4 1.5,-1.2 0,-3.2 -2,-6.1 -5.3,-6.1 z"
   id="path1538" />
	<path
   class="st5"
   d="m 1791.4,428.4 c 2,-3.3 4.6,-6.6 7.4,-6.6 2.2,0 3.7,1.6 3.7,3.1 0,1.4 -0.8,2.7 -2.2,3.3 -0.7,0.3 -1.3,0.2 -1.7,-0.2 -1,-0.9 -1.7,-1.2 -2.7,-1.2 -1.6,0 -3.4,1.8 -4.8,5 v 10.8 c 0,4 0.3,4.4 5.1,4.7 v 1.6 h -14.7 v -1.6 c 3.7,-0.4 4.3,-0.7 4.3,-4.7 V 430 c 0,-3.9 -0.3,-4.1 -3.8,-4.6 V 424 c 3.1,-0.5 6,-1.2 9.1,-2.5 v 6.8 h 0.3 z"
   id="path1540" />
</g>
<path
   class="st6"
   d="m 726.3,535.4 h -26 c -20.4,0 -37,-16.6 -37,-37 v -106 c 0,-20.4 16.6,-37 37,-37 h 26 c 20.4,0 37,16.6 37,37 v 106 c 0,20.4 -16.6,37 -37,37 z"
   id="path1544" />
<g
   id="g1568"
   transform="translate(-382.7,-25.5)">
	<path
   class="st7"
   d="m 1048.9,195.1 c -0.4,2.1 -1.7,7.9 -2.3,9.8 H 1018 v -1.7 c 5.3,-0.4 5.9,-0.8 5.9,-6.1 v -23.8 c 0,-5.3 -0.4,-5.6 -5.6,-6 v -1.8 h 16.8 v 1.8 c -4.9,0.3 -5.5,0.7 -5.5,6 v 23.6 c 0,3.3 0.3,4.5 1.5,5.1 1.2,0.7 3.3,0.8 5.8,0.8 3.3,0 5.5,-0.4 6.9,-2 1.2,-1.2 2.3,-3.2 3.4,-6.1 z"
   id="path1546" />
	<path
   class="st7"
   d="m 1071.3,205.6 c -1.2,0 -2.5,-0.5 -3.2,-1.2 -0.8,-0.8 -1.2,-1.6 -1.5,-2.6 -2.5,1.6 -5.4,3.8 -7.1,3.8 -4.6,0 -7.6,-3.7 -7.6,-7.5 0,-3 1.7,-4.9 5,-5.9 3.9,-1.2 8.2,-2.8 9.5,-3.9 v -1.1 c 0,-4.4 -2,-6.7 -4.9,-6.7 -1.1,0 -2,0.4 -2.6,1.1 -0.8,0.8 -1.3,2.2 -1.9,4.1 -0.4,1.1 -1,1.5 -2,1.5 -1.2,0 -2.8,-1.2 -2.8,-2.7 0,-0.9 0.8,-1.7 2,-2.5 1.8,-1.3 6,-3.6 9.4,-4.3 2,0 3.7,0.5 5.1,1.5 2.3,1.9 2.9,4.4 2.9,7.7 v 10.9 c 0,2.7 1.1,3.6 2.2,3.6 0.7,0 1.5,-0.3 2.2,-0.7 l 0.6,1.6 z m -4.8,-15.2 c -1.2,0.6 -3.7,1.8 -5,2.4 -2.4,1 -3.7,2.2 -3.7,4.5 0,3.2 2.4,4.6 4.2,4.6 1.5,0 3.4,-0.9 4.5,-2 z"
   id="path1548" />
	<path
   class="st7"
   d="m 1091.6,204.8 c -1.1,0.6 -2.1,0.8 -2.6,0.8 -4.1,0 -6.4,-2.3 -6.4,-7.2 V 181 h -4.2 l -0.3,-0.7 1.7,-1.8 h 2.8 V 174 l 4.5,-4.2 0.8,0.2 v 8.5 h 6.9 c 0.6,0.7 0.4,2 -0.4,2.5 h -6.5 v 15.3 c 0,4.9 2.1,5.7 3.7,5.7 1.5,0 2.8,-0.6 3.7,-1 l 0.5,1.7 z"
   id="path1550" />
	<path
   class="st7"
   d="m 1121,199.5 c -4,5 -8.4,6.1 -10.4,6.1 -7.6,0 -12.1,-6.1 -12.1,-12.9 0,-4 1.5,-7.7 3.9,-10.4 2.7,-2.9 6,-4.6 9.3,-4.6 v 0 c 5.3,0 9.5,4.5 9.5,9.3 0,1.2 -0.3,1.7 -1.5,2 -1.1,0.2 -8.8,0.8 -16,1 0.1,7.8 4.7,11.2 9,11.2 2.5,0 4.9,-1 7.1,-3 z M 1110.3,180 c -2.7,0 -5.3,2.4 -6.2,7.4 3.3,0 6.6,0 10,-0.1 1.1,0 1.5,-0.4 1.5,-1.2 -0.1,-3.2 -2,-6.1 -5.3,-6.1 z"
   id="path1552" />
	<path
   class="st7"
   d="m 1142.4,204.9 v -1.6 c 3.5,-0.4 3.9,-0.9 3.9,-5.1 v -9.9 c 0,-4.2 -1.7,-6.8 -5.5,-6.8 -2.3,0 -4.6,1.5 -6.5,3 v 14 c 0,4.2 0.3,4.4 3.9,4.8 v 1.6 h -13.7 v -1.6 c 4.1,-0.5 4.4,-0.8 4.4,-4.9 v -12.2 c 0,-3.9 -0.4,-4.2 -3.7,-4.8 v -1.5 c 2.9,-0.5 6.1,-1.2 9,-2.4 v 4.9 c 1.2,-0.9 2.6,-1.9 4.2,-2.9 1.7,-1.1 3.3,-1.8 5.1,-1.8 4.9,0 8,3.4 8,9.5 v 11.3 c 0,4.2 0.4,4.3 3.9,4.8 v 1.6 z"
   id="path1554" />
	<path
   class="st7"
   d="m 1171.5,204.8 c -1.1,0.6 -2.1,0.8 -2.6,0.8 -4.1,0 -6.4,-2.3 -6.4,-7.2 V 181 h -4.2 l -0.3,-0.7 1.7,-1.8 h 2.8 V 174 l 4.5,-4.2 0.8,0.2 v 8.5 h 6.9 c 0.6,0.7 0.4,2 -0.4,2.5 h -6.5 v 15.3 c 0,4.9 2.1,5.7 3.7,5.7 1.5,0 2.8,-0.6 3.7,-1 l 0.5,1.7 z"
   id="path1556" />
	<path
   class="st7"
   d="m 1046.4,287.8 c -1.2,-3.6 -3.4,-6.1 -6.4,-6.1 -2.2,0 -3.8,1.7 -3.8,4 0,2.5 2.3,3.9 5.1,5 4.7,1.9 7.9,4.1 7.9,8.3 0,5.7 -5.2,8.5 -10.3,8.5 -3.2,0 -6.1,-1.1 -7.1,-2 -0.4,-0.8 -1,-5.1 -1.1,-7.5 l 1.7,-0.2 c 1.2,4.1 3.9,7.7 7.6,7.7 2.2,0 4.2,-1.7 4.2,-4.1 0,-2.5 -1.6,-3.9 -4.8,-5.3 -3.6,-1.6 -7.8,-3.7 -7.8,-8.5 0,-4.3 3.7,-8 9.5,-8 2.7,0 4.3,0.5 5.6,1.1 0.5,1.3 1.3,5.1 1.4,6.5 z"
   id="path1558" />
	<path
   class="st7"
   d="m 1067.3,280.7 c 1.2,-0.7 2.4,-1 3.2,-1 7,0 11.1,5.4 11.1,11.5 0,9 -7.4,14.9 -15.4,16.4 -1.8,0 -3.5,-0.6 -4.4,-1 v 8 c 0,4.4 0.5,4.8 5.2,5.2 v 1.7 h -15.1 v -1.7 c 4,-0.4 4.5,-0.8 4.5,-4.7 v -27.4 c 0,-3.8 -0.3,-4 -4,-4.5 v -1.5 c 2.6,-0.4 6.3,-1.5 9.4,-2.7 v 4.8 z m -5.5,21.5 c 1.4,1.3 3.7,2.4 5.8,2.4 5.1,0 8.3,-4.6 8.3,-11 0,-6.6 -3.9,-10.2 -8.2,-10.2 -1.9,0 -4.3,1.3 -5.9,2.5 z"
   id="path1560" />
	<path
   class="st7"
   d="m 1105.4,307.6 c -1.2,0 -2.5,-0.5 -3.2,-1.2 -0.8,-0.8 -1.2,-1.6 -1.5,-2.6 -2.5,1.6 -5.4,3.8 -7.1,3.8 -4.6,0 -7.6,-3.7 -7.6,-7.5 0,-3 1.7,-4.9 5,-5.9 3.9,-1.2 8.2,-2.8 9.5,-3.9 v -1.1 c 0,-4.4 -2,-6.7 -4.9,-6.7 -1.1,0 -2,0.4 -2.6,1.1 -0.8,0.8 -1.3,2.2 -1.9,4.1 -0.4,1.1 -1,1.5 -2,1.5 -1.2,0 -2.8,-1.2 -2.8,-2.7 0,-0.9 0.8,-1.7 2,-2.5 1.8,-1.3 6,-3.6 9.4,-4.3 2,0 3.7,0.5 5.1,1.5 2.3,1.9 2.9,4.4 2.9,7.7 v 10.9 c 0,2.7 1.1,3.6 2.2,3.6 0.7,0 1.5,-0.3 2.2,-0.7 l 0.6,1.6 z m -4.9,-15.2 c -1.2,0.6 -3.7,1.8 -5,2.4 -2.4,1 -3.7,2.2 -3.7,4.5 0,3.2 2.4,4.6 4.2,4.6 1.5,0 3.4,-0.9 4.5,-2 z"
   id="path1562" />
	<path
   class="st7"
   d="m 1136.7,301.3 c -2.8,3.6 -7,6.3 -10.6,6.3 -8.1,0 -12.7,-6.2 -12.7,-12.7 0,-4.6 2.1,-8.7 6.3,-11.8 3.4,-2.5 7.1,-3.4 9.5,-3.4 h 0.1 c 2.5,0 4.6,0.7 5.6,1.6 0.8,0.7 1,1.2 1,1.9 0,1.4 -1.4,2.8 -2.2,2.8 -0.4,0 -0.7,-0.2 -1.2,-0.7 -2,-1.8 -4.1,-2.6 -6.3,-2.6 -3.8,0 -7.3,3.1 -7.3,9.5 0,8.3 6.1,11 9.4,11 2.6,0 4.6,-0.7 7.4,-3.3 z"
   id="path1564" />
	<path
   class="st7"
   d="m 1162.2,301.5 c -4,5 -8.4,6.1 -10.4,6.1 -7.6,0 -12.1,-6.1 -12.1,-12.9 0,-4 1.5,-7.7 3.9,-10.4 2.7,-2.9 6,-4.6 9.3,-4.6 v 0 c 5.3,0 9.5,4.5 9.5,9.3 0,1.2 -0.3,1.7 -1.5,2 -1.1,0.2 -8.8,0.8 -16,1 0.1,7.8 4.7,11.2 9,11.2 2.5,0 4.9,-1 7.1,-3 z M 1151.5,282 c -2.7,0 -5.3,2.4 -6.2,7.4 3.3,0 6.6,0 10,-0.1 1.1,0 1.5,-0.4 1.5,-1.2 -0.1,-3.2 -2.1,-6.1 -5.3,-6.1 z"
   id="path1566" />
</g>
</svg>
